<svg class="animated" id="freepik_stories-mind-map" xmlns="http://www.w3.org/2000/svg" viewBox="0 0 500 500" version="1.1" xmlns:xlink="http://www.w3.org/1999/xlink" xmlns:svgjs="http://svgjs.com/svgjs"><style>svg#freepik_stories-mind-map:not(.animated) .animable {opacity: 0;}svg#freepik_stories-mind-map.animated #freepik--Shadow--inject-2 {animation: 1s 1 forwards cubic-bezier(.36,-0.01,.5,1.38) slideUp;animation-delay: 0s;}svg#freepik_stories-mind-map.animated #freepik--Book--inject-2 {animation: 1s 1 forwards cubic-bezier(.36,-0.01,.5,1.38) slideDown;animation-delay: 0s;}svg#freepik_stories-mind-map.animated #freepik--Plant--inject-2 {animation: 1s 1 forwards cubic-bezier(.36,-0.01,.5,1.38) lightSpeedRight;animation-delay: 0s;}svg#freepik_stories-mind-map.animated #freepik--Desk--inject-2 {animation: 1s 1 forwards cubic-bezier(.36,-0.01,.5,1.38) slideRight;animation-delay: 0s;}svg#freepik_stories-mind-map.animated #freepik--mind-map--inject-2 {animation: 1s 1 forwards cubic-bezier(.36,-0.01,.5,1.38) lightSpeedLeft;animation-delay: 0s;}svg#freepik_stories-mind-map.animated #freepik--light-bulb--inject-2 {animation: 1s 1 forwards cubic-bezier(.36,-0.01,.5,1.38) slideLeft;animation-delay: 0s;}svg#freepik_stories-mind-map.animated #freepik--Character--inject-2 {animation: 1s 1 forwards cubic-bezier(.36,-0.01,.5,1.38) fadeIn;animation-delay: 0s;}            @keyframes slideUp {                0% {                    opacity: 0;                    transform: translateY(30px);                }                100% {                    opacity: 1;                    transform: inherit;                }            }                    @keyframes slideDown {                0% {                    opacity: 0;                    transform: translateY(-30px);                }                100% {                    opacity: 1;                    transform: translateY(0);                }            }                    @keyframes lightSpeedRight {              from {                transform: translate3d(50%, 0, 0) skewX(-20deg);                opacity: 0;              }              60% {                transform: skewX(10deg);                opacity: 1;              }              80% {                transform: skewX(-2deg);              }              to {                opacity: 1;                transform: translate3d(0, 0, 0);              }            }                    @keyframes slideRight {                0% {                    opacity: 0;                    transform: translateX(30px);                }                100% {                    opacity: 1;                    transform: translateX(0);                }            }                    @keyframes lightSpeedLeft {              from {                transform: translate3d(-50%, 0, 0) skewX(20deg);                opacity: 0;              }              60% {                transform: skewX(-10deg);                opacity: 1;              }              80% {                transform: skewX(2deg);              }              to {                opacity: 1;                transform: translate3d(0, 0, 0);              }            }                    @keyframes slideLeft {                0% {                    opacity: 0;                    transform: translateX(-30px);                }                100% {                    opacity: 1;                    transform: translateX(0);                }            }                    @keyframes fadeIn {                0% {                    opacity: 0;                }                100% {                    opacity: 1;                }            }        </style><g id="freepik--Shadow--inject-2" class="animable" style="transform-origin: 250px 435.74px;"><ellipse cx="250" cy="435.74" rx="128.14" ry="30.72" style="fill: rgb(235, 235, 235); transform-origin: 250px 435.74px;" id="elorcveq8q9g" class="animable"></ellipse></g><g id="freepik--Book--inject-2" class="animable" style="transform-origin: 300.3px 433.17px;"><polygon points="217.59 420 334.07 404.42 383.01 439.1 268.11 462.05 217.59 420" style="fill: rgb(80, 200, 120); transform-origin: 300.3px 433.235px;" id="eljfbtvbj2yi" class="animable"></polygon><path d="M224.65,420.37,270.89,459l107.67-21.43-47.35-33.28s-31.44.2-32.94.47S282.42,409,282.42,409s-19.55.94-20.91,1.21S224.65,420.37,224.65,420.37Z" style="fill: rgb(255, 255, 255); transform-origin: 301.605px 431.645px;" id="el21jmy0bzz4r" class="animable"></path><polygon points="282.42 408.96 288.06 413.71 293.66 418.51 304.79 428.18 315.83 437.96 321.31 442.89 326.75 447.86 321.11 443.12 315.51 438.32 304.38 428.65 293.35 418.87 287.87 413.94 282.42 408.96" style="fill: rgb(219, 219, 219); transform-origin: 304.585px 428.41px;" id="el5fa4rwn38wa" class="animable"></polygon><path d="M289.08,433.72c1.36-.26,2.72-.46,4.09-.64s2.75-.34,4.13-.48,2.76-.26,4.14-.34,2.77-.16,4.16-.17c-1.37.27-2.74.46-4.11.65s-2.74.33-4.11.47-2.76.26-4.14.34S290.48,433.71,289.08,433.72Z" style="fill: rgb(219, 219, 219); transform-origin: 297.34px 432.905px;" id="elli6q6t767w" class="animable"></path><path d="M264.33,444.29c3.61-1.19,7.24-2.32,10.87-3.44s7.28-2.18,10.93-3.25c1.82-.54,3.65-1,5.5-1.52a9.21,9.21,0,0,1,1.44-.24l1.43-.15,2.83-.26c3.79-.32,7.58-.61,11.38-.82-3.77.49-7.55.9-11.33,1.33l-2.83.3a22,22,0,0,0-2.77.41c-1.83.48-3.65,1-5.48,1.53l-11,3.11C271.67,442.31,268,443.33,264.33,444.29Z" style="fill: rgb(219, 219, 219); transform-origin: 286.52px 439.45px;" id="el2vet3bfos35" class="animable"></path><path d="M267.56,447.05c3.5-1.2,7-2.33,10.54-3.44s7.06-2.19,10.6-3.26c1.77-.54,3.54-1.05,5.33-1.54.45-.12.89-.24,1.37-.34s.93-.12,1.39-.18l2.76-.27c3.69-.31,7.37-.59,11.06-.79-3.66.49-7.33.89-11,1.32l-2.75.3c-.46.06-.92.1-1.36.19s-.87.22-1.31.34l-5.32,1.55c-3.55,1-7.08,2.1-10.64,3.11S271.13,446.08,267.56,447.05Z" style="fill: rgb(219, 219, 219); transform-origin: 289.085px 442.14px;" id="el1lyemdrxwcn" class="animable"></path><path d="M270.82,449.39q5.32-1.58,10.68-3c3.57-1,7.16-1.91,10.74-2.85,1.8-.46,3.56-.93,5.42-1.3l5.49-.82c3.67-.51,7.34-1,11-1.45-3.64.71-7.29,1.34-10.94,2l-5.48.89c-1.76.36-3.57.87-5.36,1.3-3.6.88-7.18,1.83-10.77,2.69S274.43,448.57,270.82,449.39Z" style="fill: rgb(219, 219, 219); transform-origin: 292.485px 444.68px;" id="elksauiu7m0o" class="animable"></path><path d="M323.55,439q5-1.69,10.05-3.06c.85-.23,1.69-.46,2.55-.66.43-.1.85-.2,1.31-.27l1.3-.18,5.2-.71c3.47-.48,6.94-.91,10.41-1.36s6.95-.87,10.42-1.27c-3.45.56-6.91,1.11-10.37,1.63s-6.92,1.06-10.38,1.54l-5.2.75-1.3.18c-.4.08-.83.18-1.25.29l-2.54.62C330.36,437.37,327,438.23,323.55,439Z" style="fill: rgb(219, 219, 219); transform-origin: 344.17px 435.245px;" id="elhtmjgnxqssf" class="animable"></path><path d="M320.49,435.91q4.89-1.38,9.86-2.47c1.66-.37,3.3-.76,5-1l5-.72c3.35-.49,6.71-.93,10.07-1.39s6.71-.88,10.08-1.29c-3.34.57-6.68,1.13-10,1.66s-6.69,1.07-10,1.56l-5,.76c-.83.11-1.64.3-2.47.47l-2.49.5Q325.51,435.05,320.49,435.91Z" style="fill: rgb(219, 219, 219); transform-origin: 340.495px 432.475px;" id="el0ii88k7reowi" class="animable"></path><path d="M317.5,433.13c3.25-.89,6.51-1.71,9.8-2.42,1.65-.36,3.28-.75,5-1l5-.58c3.34-.39,6.69-.74,10-1.09s6.7-.68,10.05-1c-3.33.48-6.67.94-10,1.36s-6.67.87-10,1.27c-1.66.2-3.35.39-5,.61l-4.93,1Q322.49,432.29,317.5,433.13Z" style="fill: rgb(219, 219, 219); transform-origin: 337.425px 430.085px;" id="eliu1lb71ipb" class="animable"></path><path d="M314.92,431c3.16-1.23,6.38-2.25,9.65-3.17.41-.12.82-.22,1.24-.31a9.56,9.56,0,0,1,1.29-.19l2.53-.23,5.05-.43c6.74-.55,13.49-1.06,20.24-1.49-6.73.73-13.46,1.38-20.19,2l-5.05.47-2.52.25a13.8,13.8,0,0,0-2.43.5C321.46,429.3,318.22,430.27,314.92,431Z" style="fill: rgb(219, 219, 219); transform-origin: 334.92px 428.09px;" id="el0wp53guk4ul" class="animable"></path><path d="M312.11,428.51c3.16-1.23,6.39-2.25,9.65-3.17.41-.12.82-.22,1.24-.31a10,10,0,0,1,1.29-.19l2.53-.23,5.05-.43c6.75-.55,13.49-1.06,20.24-1.49-6.72.73-13.46,1.38-20.19,2l-5.05.47-2.52.25a13.8,13.8,0,0,0-2.43.5C318.66,426.78,315.41,427.74,312.11,428.51Z" style="fill: rgb(219, 219, 219); transform-origin: 332.11px 425.6px;" id="elsbb87rcg8qm" class="animable"></path><path d="M309.3,426c3.17-1.22,6.39-2.24,9.65-3.16.41-.12.82-.22,1.25-.31a9.56,9.56,0,0,1,1.29-.19l2.52-.23,5.06-.43c6.74-.55,13.48-1.06,20.23-1.49-6.72.73-13.45,1.38-20.19,2l-5,.47-2.53.25a13.12,13.12,0,0,0-2.43.5C315.85,424.26,312.61,425.22,309.3,426Z" style="fill: rgb(219, 219, 219); transform-origin: 329.3px 423.095px;" id="eld6ogd7mkyki" class="animable"></path><path d="M306.5,423.46c3.16-1.22,6.38-2.25,9.65-3.17.41-.11.82-.21,1.24-.3a8.2,8.2,0,0,1,1.29-.19l2.53-.23,5.05-.44c6.74-.54,13.49-1.06,20.24-1.48-6.73.73-13.46,1.37-20.19,2l-5.05.47-2.52.24a14.13,14.13,0,0,0-2.44.51C313,421.74,309.8,422.7,306.5,423.46Z" style="fill: rgb(219, 219, 219); transform-origin: 326.5px 420.555px;" id="elyb6qsesdje" class="animable"></path><path d="M302.75,421.25c3.16-1.23,6.38-2.25,9.65-3.17.41-.11.82-.22,1.24-.31a8.17,8.17,0,0,1,1.29-.18l2.53-.23,5.05-.44c6.74-.54,13.49-1.06,20.24-1.49-6.73.73-13.46,1.38-20.19,2l-5.05.46-2.52.25a14.1,14.1,0,0,0-2.44.5C309.29,419.53,306.05,420.49,302.75,421.25Z" style="fill: rgb(219, 219, 219); transform-origin: 322.75px 418.34px;" id="elkrqn8ogvm1" class="animable"></path><path d="M299.1,419.07c3.16-1.23,6.39-2.25,9.65-3.17.41-.12.82-.22,1.24-.31a10,10,0,0,1,1.29-.19l2.53-.23,5.06-.43c6.74-.55,13.48-1.06,20.23-1.49-6.72.73-13.46,1.38-20.19,2l-5.05.47-2.52.25a13.8,13.8,0,0,0-2.43.5C305.65,417.34,302.4,418.31,299.1,419.07Z" style="fill: rgb(219, 219, 219); transform-origin: 319.1px 416.16px;" id="el9lu6y7srvi6" class="animable"></path><path d="M296.3,416.55c3.15-1.23,6.37-2.25,9.63-3.17.41-.11.82-.22,1.24-.3a7.18,7.18,0,0,1,1.29-.19l2.53-.19,5.05-.35c6.74-.42,13.48-.81,20.23-1.11-6.73.6-13.46,1.12-20.19,1.65l-5.05.38-2.52.21a13,13,0,0,0-2.42.49C302.83,414.83,299.59,415.79,296.3,416.55Z" style="fill: rgb(219, 219, 219); transform-origin: 316.285px 413.895px;" id="el0ifxx9uolerj" class="animable"></path><path d="M293.49,414c3.15-1.22,6.36-2.24,9.62-3.15.41-.12.81-.22,1.23-.31a6.36,6.36,0,0,1,1.3-.18l2.53-.15,5.05-.25q10.09-.44,20.21-.69c-6.73.46-13.46.84-20.19,1.23l-5,.28-2.52.16a12.41,12.41,0,0,0-2.42.5C300,412.31,296.78,413.26,293.49,414Z" style="fill: rgb(219, 219, 219); transform-origin: 313.46px 411.635px;" id="ell93dit2thth" class="animable"></path><path d="M290.68,411.5c3.15-1.22,6.35-2.24,9.6-3.15.41-.12.82-.22,1.24-.31a5.56,5.56,0,0,1,1.29-.17l2.53-.08,5.05-.08c3.36,0,6.73,0,10.09-.06s6.73,0,10.1.06c-6.73.22-13.46.37-20.18.53l-5,.12-2.52.09a12.33,12.33,0,0,0-2.4.49C297.19,409.79,294,410.74,290.68,411.5Z" style="fill: rgb(219, 219, 219); transform-origin: 310.63px 409.563px;" id="elhev5w719um" class="animable"></path><path d="M274,452.81c3.62-1,7.25-1.87,10.88-2.76s7.28-1.73,10.92-2.59c1.83-.42,3.64-.82,5.51-1.19l5.53-.94c3.69-.59,7.38-1.18,11.09-1.69-3.66.79-7.33,1.49-11,2.2l-5.52,1c-1.8.37-3.64.83-5.46,1.22L285,450.5C281.34,451.3,277.68,452.08,274,452.81Z" style="fill: rgb(219, 219, 219); transform-origin: 295.965px 448.225px;" id="elj1b882abnl" class="animable"></path><path d="M325.76,441.92c3.64-.89,7.31-1.72,11-2.54s7.34-1.57,11-2.35c1.84-.39,3.67-.75,5.55-1.08l5.56-.82c3.72-.52,7.44-1,11.17-1.47-3.69.71-7.39,1.34-11.09,2l-5.56.89c-1.82.33-3.67.75-5.51,1.1l-11,2.21C333.14,440.55,329.45,441.26,325.76,441.92Z" style="fill: rgb(219, 219, 219); transform-origin: 347.9px 437.79px;" id="elmu38cgl2op" class="animable"></path></g><g id="freepik--Plant--inject-2" class="animable" style="transform-origin: 398.389px 332.824px;"><path d="M380.13,302.19c16,15.66,18.68,39.89,15.31,61.11-.09.48-.83.35-.83-.1,0-4.83.15-9.62.13-14.39-.09-.22-.16-.43-.25-.64-4.17-3-8-6.47-10.39-11.17-2.67-5.25-3.72-11.18-5.76-16.67-.19-.52.37-.37.74-.1,9.72,7.18,12.83,14.9,15.62,25.22a85.26,85.26,0,0,0-1.7-16.07c-2.1-9.79-6.26-19.49-13.29-26.76C379.45,302.34,379.86,301.92,380.13,302.19Z" style="fill: rgb(38, 50, 56); transform-origin: 387.511px 332.854px;" id="elyi1a2xkw3g" class="animable"></path><path d="M377.13,304c-2.75.09-4.48,4.49-6.62,5.77a2.06,2.06,0,0,1-3-.47c-2.13-3,.79-6.63,3.53-8.67-2,.8-3.59,2.22-5.7,2.62a2,2,0,0,1-2.57-1.54c-.94-4.05,4.14-5.84,7.62-5.93-1.69-1.17-6.53-4.36-4-5.93s8.28,3,10.13,4.49c2.72,2.21,6,5.5,6.09,9C382.77,307.34,379.24,304.86,377.13,304Z" style="fill: rgb(80, 200, 120); transform-origin: 372.636px 299.873px;" id="el1albdmh3f7j" class="animable"></path><g id="el8a8b35eu1cn"><path d="M377.13,304c-2.75.09-4.48,4.49-6.62,5.77a2.06,2.06,0,0,1-3-.47c-2.13-3,.79-6.63,3.53-8.67-2,.8-3.59,2.22-5.7,2.62a2,2,0,0,1-2.57-1.54c-.94-4.05,4.14-5.84,7.62-5.93-1.69-1.17-6.53-4.36-4-5.93s8.28,3,10.13,4.49c2.72,2.21,6,5.5,6.09,9C382.77,307.34,379.24,304.86,377.13,304Z" style="opacity: 0.1; transform-origin: 372.636px 299.873px;" class="animable"></path></g><path d="M377.92,304.7c-3.51-1.6-10.27.7-10.85-.63-1.16-2.71,4.24-4.57,7.15-4.93-2.68-.73-7.83-1.89-7.67-4.48.19-3.16,7.89-.44,11.79,2.55,4.91,3.76,4.87,7.39,4.06,8.12C381.29,306.33,378.5,305,377.92,304.7Z" style="fill: rgb(80, 200, 120); transform-origin: 374.677px 299.473px;" id="elahrah2vwnw8" class="animable"></path><path d="M416.56,300.64c-16.58,15-20.18,39.15-17.62,60.48.07.49.82.38.83-.07.19-4.82.22-9.61.42-14.38.1-.22.18-.42.27-.63,4.29-2.88,8.25-6.16,10.81-10.77,2.87-5.14,4.14-11,6.39-16.43.21-.52-.35-.39-.73-.13-10,6.8-13.39,14.4-16.57,24.61a86.81,86.81,0,0,1,2.3-16c2.48-9.7,7-19.24,14.31-26.24A.3.3,0,0,0,416.56,300.64Z" style="fill: rgb(38, 50, 56); transform-origin: 407.95px 331px;" id="elq330uc8wodp" class="animable"></path><path d="M419.5,302.58c2.74.2,4.3,4.66,6.39,6a2.05,2.05,0,0,0,3.05-.36c2.24-2.88-.53-6.65-3.2-8.8,1.93.88,3.5,2.36,5.6,2.84a2,2,0,0,0,2.63-1.44c1.09-4-3.91-6-7.39-6.21,1.73-1.11,6.69-4.11,4.18-5.78s-8.39,2.67-10.29,4.1c-2.8,2.1-6.17,5.28-6.42,8.72C413.73,305.69,417.35,303.35,419.5,302.58Z" style="fill: rgb(80, 200, 120); transform-origin: 424.076px 298.777px;" id="el0v83fmv4x1p" class="animable"></path><g id="elbstqyrkhola"><path d="M419.5,302.58c2.74.2,4.3,4.66,6.39,6a2.05,2.05,0,0,0,3.05-.36c2.24-2.88-.53-6.65-3.2-8.8,1.93.88,3.5,2.36,5.6,2.84a2,2,0,0,0,2.63-1.44c1.09-4-3.91-6-7.39-6.21,1.73-1.11,6.69-4.11,4.18-5.78s-8.39,2.67-10.29,4.1c-2.8,2.1-6.17,5.28-6.42,8.72C413.73,305.69,417.35,303.35,419.5,302.58Z" style="opacity: 0.1; transform-origin: 424.076px 298.777px;" class="animable"></path></g><path d="M418.67,303.23c3.58-1.46,10.25,1.09,10.87-.22,1.27-2.66-4.06-4.72-7-5.19,2.71-.63,7.9-1.59,7.84-4.18-.07-3.17-7.87-.75-11.88,2.09-5,3.58-5.15,7.2-4.37,8C415.25,304.73,418.08,303.47,418.67,303.23Z" style="fill: rgb(80, 200, 120); transform-origin: 422.08px 298.126px;" id="eldsoeuoedz4h" class="animable"></path><path d="M399.61,340.36a163,163,0,0,1-5.15,23.78.59.59,0,0,1-1.16-.23c1.09-7.33,3.07-14.52,4.16-21.85a110.06,110.06,0,0,0,1.28-22.43c-.7-12.35-4.05-25.48-12.11-35.15-.18-.23.2-.55.38-.34C403.14,303,400.57,326,400.56,328.08c2.28-7.78,4.64-16.71,13.28-24.64.37-.34.66-.18.6.4-1.55,14.45-5.56,22-13.94,29.71C400.27,335.84,400,338.12,399.61,340.36Z" style="fill: rgb(38, 50, 56); transform-origin: 400.515px 324.343px;" id="elkrkq2uy3d2b" class="animable"></path><path d="M386.48,286.65c-2.9-1.29-6.9,2.4-9.77,2.66-1.53.13-2.65-.47-2.92-2-.71-4.15,4.16-6.47,8-7.22-2.44-.15-4.84.5-7.23-.14a2.31,2.31,0,0,1-1.9-2.9c1.07-4.66,7.24-4,10.89-2.31-1.16-2.07-4.57-7.81-1.11-8.15s7.08,7.27,8.25,9.76c1.71,3.66,3.41,8.71,1.8,12.35C390.66,292.94,388.25,288.59,386.48,286.65Z" style="fill: rgb(80, 200, 120); transform-origin: 382.857px 278.537px;" id="elw0v1l32fbkf" class="animable"></path><g id="ela7ptjoxw77e"><path d="M386.48,286.65c-2.9-1.29-6.9,2.4-9.77,2.66-1.53.13-2.65-.47-2.92-2-.71-4.15,4.16-6.47,8-7.22-2.44-.15-4.84.5-7.23-.14a2.31,2.31,0,0,1-1.9-2.9c1.07-4.66,7.24-4,10.89-2.31-1.16-2.07-4.57-7.81-1.11-8.15s7.08,7.27,8.25,9.76c1.71,3.66,3.41,8.71,1.8,12.35C390.66,292.94,388.25,288.59,386.48,286.65Z" style="opacity: 0.1; transform-origin: 382.857px 278.537px;" class="animable"></path></g><path d="M387,287.75c-2.85-3.43-11-4.44-11-6.11.16-3.4,6.7-2.61,9.9-1.52-2.41-2.1-7.17-5.9-5.7-8.5,1.79-3.19,8.41,3.51,10.95,8.57,3.19,6.38,1.33,10.13.13,10.47C389.64,291.14,387.44,288.32,387,287.75Z" style="fill: rgb(80, 200, 120); transform-origin: 384.46px 280.753px;" id="elgzq95b7dj8" class="animable"></path><path d="M410.22,344.71l7.12,54.36H374c.89-4.81,8.95-54.42,8.95-54.42Z" style="fill: rgb(80, 200, 120); transform-origin: 395.67px 371.86px;" id="eluusmv4wemkg" class="animable"></path></g><g id="freepik--Desk--inject-2" class="animable" style="transform-origin: 250px 399.075px;"><polygon points="45.75 399.07 96.82 398.83 147.88 398.74 250 398.58 352.12 398.74 403.19 398.83 454.25 399.07 403.19 399.32 352.12 399.41 250 399.57 147.88 399.41 96.82 399.32 45.75 399.07" style="fill: rgb(38, 50, 56); transform-origin: 250px 399.075px;" id="el5p2a97md9um" class="animable"></polygon></g><g id="freepik--mind-map--inject-2" class="animable" style="transform-origin: 249.098px 155.327px;"><circle cx="340.89" cy="217.52" r="37.54" style="fill: rgb(80, 200, 120); transform-origin: 340.89px 217.52px;" id="eltcaatwzx5l" class="animable"></circle><g id="ellscfdkd494j"><circle cx="340.89" cy="217.52" r="37.54" style="fill: rgb(255, 255, 255); opacity: 0.3; transform-origin: 340.89px 217.52px;" class="animable"></circle></g><path d="M340.89,262a44.44,44.44,0,1,1,44.43-44.43A44.48,44.48,0,0,1,340.89,262Zm0-87.87a43.44,43.44,0,1,0,43.43,43.44A43.49,43.49,0,0,0,340.89,174.08Z" style="fill: rgb(80, 200, 120); transform-origin: 340.88px 217.56px;" id="elvcvk86ma6sb" class="animable"></path><g id="elqppa5500tto"><circle cx="160.59" cy="85.43" r="37.54" style="fill: rgb(80, 200, 120); transform-origin: 160.59px 85.43px; transform: rotate(-19.6deg);" class="animable"></circle></g><g id="elmvoh5bc8w47"><circle cx="160.59" cy="85.43" r="37.54" style="fill: rgb(255, 255, 255); opacity: 0.3; transform-origin: 160.59px 85.43px; transform: rotate(-19.6deg);" class="animable"></circle></g><path d="M160.59,128.26a42.83,42.83,0,1,1,42.83-42.83A42.87,42.87,0,0,1,160.59,128.26Zm0-84.66a41.83,41.83,0,1,0,41.83,41.83A41.88,41.88,0,0,0,160.59,43.6Z" style="fill: rgb(80, 200, 120); transform-origin: 160.59px 85.43px;" id="elz0ruadgggvc" class="animable"></path><g id="eltm03ba47lpb"><circle cx="418.24" cy="162.09" r="19.51" style="fill: rgb(80, 200, 120); transform-origin: 418.24px 162.09px; transform: rotate(-80.73deg);" class="animable"></circle></g><g id="el77o8shpgeqt"><circle cx="418.24" cy="162.09" r="19.51" style="fill: rgb(255, 255, 255); opacity: 0.3; transform-origin: 418.24px 162.09px; transform: rotate(-80.73deg);" class="animable"></circle></g><path d="M418.24,187.91a25.82,25.82,0,1,1,25.82-25.82A25.86,25.86,0,0,1,418.24,187.91Zm0-50.64a24.82,24.82,0,1,0,24.82,24.82A24.85,24.85,0,0,0,418.24,137.27Z" style="fill: rgb(80, 200, 120); transform-origin: 418.24px 162.09px;" id="elva5ml1dqc9e" class="animable"></path><g id="elmm3eg1x72z"><circle cx="160.59" cy="245.59" r="19.51" style="fill: rgb(80, 200, 120); transform-origin: 160.59px 245.59px; transform: rotate(-45deg);" class="animable"></circle></g><g id="els81vxnn1a2"><circle cx="160.59" cy="245.59" r="19.51" style="fill: rgb(255, 255, 255); opacity: 0.3; transform-origin: 160.59px 245.59px; transform: rotate(-45deg);" class="animable"></circle></g><path d="M160.59,270.68a25.09,25.09,0,1,1,25.09-25.09A25.11,25.11,0,0,1,160.59,270.68Zm0-49.18a24.09,24.09,0,1,0,24.09,24.09A24.12,24.12,0,0,0,160.59,221.5Z" style="fill: rgb(80, 200, 120); transform-origin: 160.59px 245.59px;" id="elkgcx5g2k1w" class="animable"></path><circle cx="250" cy="65.93" r="19.51" style="fill: rgb(80, 200, 120); transform-origin: 250px 65.93px;" id="elre89bjkkuj" class="animable"></circle><g id="eljh61vxmyz0b"><circle cx="250" cy="65.93" r="19.51" style="fill: rgb(255, 255, 255); opacity: 0.3; transform-origin: 250px 65.93px;" class="animable"></circle></g><path d="M250,91.53a25.6,25.6,0,1,1,25.6-25.6A25.63,25.63,0,0,1,250,91.53Zm0-50.2a24.6,24.6,0,1,0,24.6,24.6A24.63,24.63,0,0,0,250,41.33Z" style="fill: rgb(80, 200, 120); transform-origin: 250px 65.93px;" id="el9bnhfuqjkdl" class="animable"></path><g id="elwfaob1i0z3k"><circle cx="106.87" cy="175.66" r="46.08" style="fill: rgb(80, 200, 120); transform-origin: 106.87px 175.66px; transform: rotate(-80.98deg);" class="animable"></circle></g><g id="el697iatg5ff"><circle cx="106.87" cy="175.66" r="46.08" style="fill: rgb(255, 255, 255); opacity: 0.3; transform-origin: 106.87px 175.66px; transform: rotate(-80.98deg);" class="animable"></circle></g><path d="M106.87,227.64a52,52,0,1,1,52-52A52,52,0,0,1,106.87,227.64Zm0-103a51,51,0,1,0,51,51A51,51,0,0,0,106.87,124.67Z" style="fill: rgb(80, 200, 120); transform-origin: 106.87px 175.64px;" id="eliyj4xo8arf" class="animable"></path><circle cx="350.02" cy="98.84" r="46.08" style="fill: rgb(80, 200, 120); transform-origin: 350.02px 98.84px;" id="elzpcs3w50hkp" class="animable"></circle><g id="elnngxjtc3isq"><circle cx="350.02" cy="98.84" r="46.08" style="fill: rgb(255, 255, 255); opacity: 0.3; transform-origin: 350.02px 98.84px;" class="animable"></circle></g><path d="M350,151.77a52.93,52.93,0,1,1,52.92-52.93A53,53,0,0,1,350,151.77Zm0-104.85a51.93,51.93,0,1,0,51.92,51.92A52,52,0,0,0,350,46.92Z" style="fill: rgb(80, 200, 120); transform-origin: 349.99px 98.84px;" id="elfwmp8n4s6jj" class="animable"></path><path d="M158.35,175.66c4.47-.13,8.94-.24,13.41-.3s9-.14,13.42-.14l-.24.07,11.83-7.74,11.9-7.63c4-2.56,8-5,12-7.56s8-5,12-7.44q-5.84,4-11.71,7.93c-3.93,2.6-7.83,5.24-11.79,7.81l-11.83,7.73L185.42,176l-.11.07h-.13c-4.47,0-8.94-.1-13.42-.15S162.82,175.78,158.35,175.66Z" style="fill: rgb(80, 200, 120); transform-origin: 195.51px 160.495px;" id="el6s3xeiowvq" class="animable"></path><path d="M173,223.76q5.16-6.4,10.4-12.75c3.5-4.23,7-8.46,10.52-12.65l10.6-12.59,10.68-12.51.13-.16h.19l14.19.16,7.1.12,7.1.15-7.1.16-7.1.12-14.19.15.33-.15-10.58,12.6-10.67,12.52c-3.55,4.19-7.15,8.32-10.74,12.47S176.59,219.66,173,223.76Z" style="fill: rgb(80, 200, 120); transform-origin: 208.455px 198.43px;" id="el25vqwio3n9e" class="animable"></path><path d="M191.71,114.58c2.77,2.51,5.48,5.07,8.16,7.66s5.33,5.21,8,7.82l-.34-.14c2.29,0,4.58,0,6.87,0l6.88.06c4.58.09,9.16.18,13.74.41-4.58.23-9.16.32-13.74.41l-6.88.06c-2.29,0-4.58,0-6.87,0h-.21l-.13-.14c-2.61-2.67-5.26-5.29-7.82-8S194.22,117.35,191.71,114.58Z" style="fill: rgb(80, 200, 120); transform-origin: 213.365px 122.72px;" id="eli9818aw21b" class="animable"></path><path d="M250,91c.21,2.76.3,5.52.38,8.28s.11,5.53.12,8.29,0,5.52-.12,8.29l-.13,4.14c-.09,1.38-.14,2.76-.25,4.14-.11-1.38-.16-2.76-.25-4.14l-.13-4.14c-.1-2.77-.11-5.53-.12-8.29s0-5.53.12-8.29S249.79,93.79,250,91Z" style="fill: rgb(80, 200, 120); transform-origin: 250px 107.57px;" id="elipt14pwgusk" class="animable"></path><path d="M263.45,164.67c10.79-.2,21.58-.3,32.37-.38l32.37-.12,32.37.12,16.18.14,16.18.24-16.18.25-16.18.14-32.37.11-32.37-.11C285,165,274.24,164.88,263.45,164.67Z" style="fill: rgb(80, 200, 120); transform-origin: 328.185px 164.67px;" id="elg2g711uetlo" class="animable"></path><path d="M299.9,201.69c-4.54.2-9.09.3-13.63.38h-.16l-.12-.13c-2.41-2.59-4.75-5.26-7.12-7.89s-4.7-5.3-7-8l-3.5-4-3.44-4c-2.31-2.69-4.57-5.42-6.81-8.17q3.69,3.82,7.28,7.75l3.61,3.9,3.55,4c2.36,2.64,4.74,5.26,7.06,7.94s4.69,5.32,7,8l-.28-.13C290.81,201.4,295.36,201.5,299.9,201.69Z" style="fill: rgb(80, 200, 120); transform-origin: 279.01px 185.975px;" id="eleiw5fujic96" class="animable"></path><path d="M298.19,106.75c-3,.15-6.09.26-9.13.32s-6.08.13-9.12.14l.32-.13c-1.67,1.61-3.31,3.25-5,4.82l-5.06,4.76c-3.4,3.14-6.82,6.27-10.33,9.3,3.17-3.38,6.45-6.65,9.74-9.92l5-4.84c1.65-1.62,3.36-3.19,5-4.79l.13-.12h.19c3,0,6.08,0,9.12.13S295.15,106.59,298.19,106.75Z" style="fill: rgb(80, 200, 120); transform-origin: 279.03px 116.125px;" id="elxzjrob2dhd" class="animable"></path><path d="M167.74,67a11.13,11.13,0,0,0-11.82,18.62,11.65,11.65,0,0,0,2.56,1.64h0a11.11,11.11,0,0,0,4.63,1c.34,0,.68,0,1,0A11.13,11.13,0,0,0,167.74,67Zm5,14.55a10.61,10.61,0,0,1-14.08,5.25,11.06,11.06,0,0,1-2.46-1.56,10.64,10.64,0,0,1,3.17-18.08,10.54,10.54,0,0,1,8.12.29A10.67,10.67,0,0,1,172.78,81.59Zm-5-14.55a11.13,11.13,0,0,0-11.82,18.62,11.65,11.65,0,0,0,2.56,1.64h0a11.11,11.11,0,0,0,4.63,1c.34,0,.68,0,1,0A11.13,11.13,0,0,0,167.74,67Zm5,14.55a10.61,10.61,0,0,1-14.08,5.25,11.06,11.06,0,0,1-2.46-1.56,10.64,10.64,0,0,1,3.17-18.08,10.54,10.54,0,0,1,8.12.29A10.67,10.67,0,0,1,172.78,81.59Zm4.69-9.77a15.21,15.21,0,0,0-3.14-5.09,15.32,15.32,0,0,0-16.57-3.91,15.32,15.32,0,0,0-3.4,26.93l-2,4.33-.21.45,6.75,3.13.21-.45,2.23-4.82a15.32,15.32,0,0,0,16.15-20.57Zm-.88,11.51a14.75,14.75,0,0,1-15.38,8.54l-.19,0L158.64,97l-5.84-2.71L155,89.58l-.17-.12a14.83,14.83,0,1,1,21.77-6.13Z" style="fill: rgb(69, 90, 100); transform-origin: 163.084px 79.7159px;" id="elz1df2kxo7en" class="animable"></path><path d="M177,72a14.82,14.82,0,1,0-22.18,17.47l.17.12-2.19,4.71L158.64,97,161,91.85l.19,0A14.83,14.83,0,0,0,177,72Zm-3.77,9.81a11.15,11.15,0,0,1-9.09,6.45c-.34,0-.68,0-1,0a11.11,11.11,0,0,1-4.63-1h0a11.65,11.65,0,0,1-2.56-1.64,11.13,11.13,0,1,1,17.31-3.86Z" style="fill: rgb(69, 90, 100); transform-origin: 163.11px 79.6858px;" id="elchu87f4o6ej" class="animable"></path><path d="M159.09,97.21l-.45-.21-5.84-2.71-.46-.21L151,93.47l-7.26,15.65,9.31,4.23,7.24-15.58Zm-6.26,15.48-8.41-3.81,6.84-14.75.87.4,6.75,3.13.76.35Z" style="fill: rgb(69, 90, 100); transform-origin: 152.015px 103.41px;" id="elir1vdd6eh6p" class="animable"></path><path d="M353.94,195.06a7.55,7.55,0,1,0-12.8,8,6.92,6.92,0,0,0,.63.8l.06.07,7.58,2.13h0l.07,0a8,8,0,0,0,1-.36,7.55,7.55,0,0,0,3.47-10.59Zm.06,5.57a6.86,6.86,0,0,1-4.59,4.73l-7.22-2a6.9,6.9,0,1,1,12.07-4.59A6.79,6.79,0,0,1,354,200.63Z" style="fill: rgb(69, 90, 100); transform-origin: 347.402px 198.698px;" id="elxe1oi58joj" class="animable"></path><path d="M354.26,198.74a6.79,6.79,0,0,1-.26,1.89,6.86,6.86,0,0,1-4.59,4.73l-7.22-2a6.9,6.9,0,1,1,12.07-4.59Z" style="fill: rgb(69, 90, 100); transform-origin: 347.36px 198.625px;" id="ellufty998qpe" class="animable"></path><path d="M350.47,205.65l-1.06-.29-7.22-2-1.05-.29-3-.85-.77,2.76,1.35.38.63.17,11.41,3.2.63.18,1.36.38.77-2.76Zm1.8,2.8-.73-.2-12.67-3.55-.73-.21.42-1.5,3.27.92,7.6,2.12,3.26.92Z" style="fill: rgb(69, 90, 100); transform-origin: 345.445px 205.755px;" id="elwwfz9d53rm" class="animable"></path><path d="M349.94,237.1l-.86-.25-23-6.44h0l-.86-.25-2.9-.81-.77,2.76,1.11.31.63.18L351,240.35l1.12.31.77-2.75Zm1.68,2.76-.49-.14-28.28-7.92-.49-.14.42-1.5,1.65.46,26,7.28,1.65.46Z" style="fill: rgb(69, 90, 100); transform-origin: 337.22px 235.005px;" id="elfesc67mhfli" class="animable"></path><path d="M350.06,243.56l-.63-.18-27-7.57-.63-.18-1.11-.31-.77,2.75,30.51,8.56.77-2.76Zm-.11,2.26-29.26-8.2.42-1.5.48.13h0l28.29,7.93.48.13Z" style="fill: rgb(69, 90, 100); transform-origin: 335.56px 240.975px;" id="elj6rzjdrxks9" class="animable"></path><path d="M322.85,231.79h0l-.18.62-.9,3.21-.18.62h0l28.29,7.93.18-.63.89-3.21.18-.63Zm27.48,8.39-.9,3.2-27-7.57.9-3.21Z" style="fill: rgb(69, 90, 100); transform-origin: 336.36px 237.98px;" id="elq2mea6oaa2m" class="animable"></path><polygon points="350.33 240.18 349.43 243.38 322.4 235.81 323.3 232.6 350.33 240.18" style="fill: rgb(69, 90, 100); transform-origin: 336.365px 237.99px;" id="elpzn0k3ftnur" class="animable"></polygon><path d="M350.76,211l-12.66-3.55.77-2.75,12.67,3.55Zm-11.86-4,11.41,3.2.42-1.5-11.41-3.2Z" style="fill: rgb(69, 90, 100); transform-origin: 344.82px 207.85px;" id="el2t001re18j1" class="animable"></path><path d="M350,237.21l-.06-.11c-.5-.93-3.84-7.48-3.19-13.83.52-5.11,1.74-11.32,2.05-12.82,0-.21.07-.33.07-.34l.06-.29-8.66-2.43-.1.29-.11.32c-.51,1.43-2.7,7.37-4.91,12-2.74,5.75-9,9.6-9.92,10.15l-.12.07-.68.39,26,7.28Zm-23.9-6.8c1.86-1.18,7.1-4.82,9.64-10.11,2.24-4.71,4.45-10.74,4.94-12.12l7.49,2.1c-.3,1.43-1.55,7.74-2.07,12.92-.6,5.85,2,11.7,3,13.65Z" style="fill: rgb(69, 90, 100); transform-origin: 337.43px 222.64px;" id="elbya5jzsu4t" class="animable"></path><path d="M349.08,236.85l-23-6.44c1.86-1.18,7.1-4.82,9.64-10.11,2.24-4.71,4.45-10.74,4.94-12.12l7.49,2.1c-.3,1.43-1.55,7.74-2.07,12.92C345.5,229.05,348.1,234.9,349.08,236.85Z" style="fill: rgb(69, 90, 100); transform-origin: 337.58px 222.515px;" id="el8su5mit1oe3" class="animable"></path><path d="M97.87,144.2a9.53,9.53,0,0,0-4.36-4.74,6.24,6.24,0,0,0-5.18.19,6.07,6.07,0,0,0-3.57,3.68c-.78,2.41.14,5,.74,6.34a4.78,4.78,0,0,0,.22.45h0l.44-.19-.07-.15-.14-.3c-.57-1.24-1.45-3.75-.74-6a5.62,5.62,0,0,1,3.3-3.38,6.65,6.65,0,0,1,2.72-.62,5.07,5.07,0,0,1,2.06.43,9.06,9.06,0,0,1,4.1,4.48c0,.11.1.21.13.3a1,1,0,0,1,.07.15l.43-.19h0Z" style="fill: rgb(69, 90, 100); transform-origin: 91.2401px 144.554px;" id="elbift1l1qbw5" class="animable"></path><polygon points="98.04 144.66 97.61 144.85 86.18 149.92 85.74 150.11 85.67 149.96 86.11 149.77 97.54 144.7 97.97 144.51 98.04 144.66" style="fill: rgb(69, 90, 100); transform-origin: 91.855px 147.31px;" id="el05cfarvw2lq5" class="animable"></polygon><polygon points="87.33 152.35 86.87 152.55 86.76 152.32 86.66 152.1 86.55 151.87 87.01 151.67 87.12 151.9 87.22 152.12 87.33 152.35" style="fill: rgb(69, 90, 100); transform-origin: 86.94px 152.11px;" id="el28mzcg6ts5x" class="animable"></polygon><polygon points="111.91 205.63 111.69 205.74 111.46 205.84 87.89 154.77 87.68 154.32 88.14 154.11 88.35 154.57 111.8 205.38 111.91 205.63" style="fill: rgb(69, 90, 100); transform-origin: 99.795px 179.975px;" id="el8507jd4a34q" class="animable"></polygon><polygon points="99.17 147.11 98.72 147.31 98.62 147.08 98.4 146.62 98.85 146.42 98.96 146.65 99.06 146.88 99.17 147.11" style="fill: rgb(69, 90, 100); transform-origin: 98.785px 146.865px;" id="elaqka59jk6nw" class="animable"></polygon><polygon points="123.76 200.39 123.53 200.49 123.3 200.6 123.18 200.33 99.74 149.52 99.53 149.07 99.98 148.87 100.19 149.32 123.76 200.39" style="fill: rgb(69, 90, 100); transform-origin: 111.645px 174.735px;" id="elv65k7sfui29" class="animable"></polygon><path d="M97.54,144.7l-11.43,5.07.07.15,11.43-5.07A1,1,0,0,0,97.54,144.7Zm0,0-11.43,5.07.07.15,11.43-5.07A1,1,0,0,0,97.54,144.7Zm0,0-11.43,5.07.07.15,11.43-5.07A1,1,0,0,0,97.54,144.7Zm2.42,1.51-1.13-2.44-1,.43-.46.2L86,149.47l-.47.2-1,.43,1.13,2.44.1.22,1-.44.46-.2,11.4-5,.44-.2,1-.44Zm-14.75,4.14.51-.23h0l.44-.19,11.43-5.07.43-.19h0l.51-.23.81,1.76-.54.24-.45.2-11.39,5-.46.2-.53.24Zm12.33-5.65-11.43,5.07.07.15,11.43-5.07A1,1,0,0,0,97.54,144.7Zm0,0-11.43,5.07.07.15,11.43-5.07A1,1,0,0,0,97.54,144.7Z" style="fill: rgb(69, 90, 100); transform-origin: 92.295px 148.265px;" id="eljckr0vve1b" class="animable"></path><path d="M98.62,147.08l-.11-.23L87.12,151.9l.1.22.11.23,11.39-5Zm0,0-.11-.23L87.12,151.9l.1.22.11.23,11.39-5Zm1.44-.64-.1-.23-1,.44-.45.2L87.12,151.9l-.46.2-1,.44.1.22,1.13,2.45,1-.44.46-.2,11.39-5,.45-.2,1-.44Zm-.08,2.43-.45.2-11.39,5-.46.21-.53.23-.82-1.76.54-.24.46-.2,11.39-5,.45-.2.54-.24.81,1.76Zm-1.36-1.79-.11-.23L87.12,151.9l.1.22.11.23,11.39-5Zm0,0-.11-.23L87.12,151.9l.1.22.11.23,11.39-5Z" style="fill: rgb(69, 90, 100); transform-origin: 93.425px 150.71px;" id="el1pxxetq1pmj" class="animable"></path><path d="M123.53,200.49l-.35-.16-1.72-.8-.08.28s-.3,1.05-.44,1.56l-1.77-.83-.52,1.84-1.75-.83-.54,1.85-1.75-.84-.54,1.85-1.75-.83-.08.28-.44,1.52c0,.16-.08.27-.09.31l0,.05-.08.13,7.56,4.85,2.75,1.78,1.75-11.94Zm-1.38,7-.25,1.73-.36,2.45L118,209.35l-5.72-3.68c.06-.2.18-.59.4-1.39l1.76.84.54-1.85,1.75.83.54-1.85,1.75.84.52-1.84,1.77.82.08-.28s.3-1,.44-1.56l1.34.62Z" style="fill: rgb(69, 90, 100); transform-origin: 117.66px 206.015px;" id="el00a94chlycv3" class="animable"></path><path d="M122.15,207.48l-4.2,1.87-.38.17,4.12,2.66.72-4.81Zm-.37.72-.47,3.14-2.7-1.74Z" style="fill: rgb(69, 90, 100); transform-origin: 119.99px 209.775px;" id="elqsip7dsl45" class="animable"></path><path d="M99.74,149.52l-11.39,5,23.45,50.81.44-1.52.08-.28,1.75.83.54-1.85,1.75.84.54-1.85,1.75.83.52-1.84,1.77.83c.14-.51.43-1.54.44-1.56l.08-.28,1.72.8Zm7.84,40.08c-1.87-3.78-3.63-7.62-5.45-11.43s-3.5-7.69-5.16-11.56-3.32-7.77-4.82-11.73c2,3.71,3.92,7.49,5.79,11.28s3.63,7.62,5.45,11.43,3.49,7.68,5.15,11.56,3.32,7.77,4.83,11.72C111.34,197.16,109.45,193.39,107.58,189.6Zm5.29-2.43c-1.87-3.79-3.63-7.62-5.45-11.43s-3.49-7.69-5.16-11.57-3.32-7.76-4.82-11.72c2,3.71,3.92,7.49,5.79,11.28s3.63,7.62,5.45,11.43,3.49,7.68,5.16,11.56,3.31,7.77,4.82,11.72C116.63,194.73,114.74,191,112.87,187.17Z" style="fill: rgb(69, 90, 100); transform-origin: 105.765px 177.425px;" id="elxnujnnxxzb" class="animable"></path><path d="M248.75,61a4.47,4.47,0,1,1-4.47-4.47A4.47,4.47,0,0,1,248.75,61Z" style="fill: rgb(69, 90, 100); transform-origin: 244.28px 61px;" id="elp847spmwpuf" class="animable"></path><path d="M252,73.32V75H236.55V73.32a7.73,7.73,0,0,1,15.45,0Z" style="fill: rgb(69, 90, 100); transform-origin: 244.275px 70.434px;" id="el4voghsxbbpp" class="animable"></path><path d="M260.2,58.31a4.47,4.47,0,1,1-4.47-4.47A4.47,4.47,0,0,1,260.2,58.31Z" style="fill: rgb(69, 90, 100); transform-origin: 255.73px 58.31px;" id="el71i4oj1lzb" class="animable"></path><path d="M263.45,70.63v1.63H248V70.63a7.73,7.73,0,0,1,15.45,0Z" style="fill: rgb(69, 90, 100); transform-origin: 255.725px 67.719px;" id="elweu2zml33yp" class="animable"></path><path d="M151.18,246a1.14,1.14,0,0,1,1.18,0l.31.18.31.15a1.13,1.13,0,0,1,.66,1l.05,1.46,4.74-.15,0-1.45a1.15,1.15,0,0,1,.59-1,5.51,5.51,0,0,0,.61-.37,1.12,1.12,0,0,1,1.18-.07l1.28.68,2.24-4.18-1.28-.69a1.12,1.12,0,0,1-.59-1,5.56,5.56,0,0,0,0-.71,1.11,1.11,0,0,1,.52-1.06l1.24-.77-2.5-4-1.25.77a1.12,1.12,0,0,1-1.18,0l-.3-.18-.31-.16a1.14,1.14,0,0,1-.67-1l0-1.46-4.75.15.05,1.45a1.15,1.15,0,0,1-.59,1c-.21.11-.41.24-.61.37a1.12,1.12,0,0,1-1.18.08l-1.28-.69-2.24,4.19,1.28.68a1.15,1.15,0,0,1,.59,1,5.61,5.61,0,0,0,0,.71,1.12,1.12,0,0,1-.52,1.06l-1.24.77,2.5,4Zm1.19-7.49A3.89,3.89,0,1,1,154,243.8,3.89,3.89,0,0,1,152.37,238.54Z" style="fill: rgb(69, 90, 100); transform-origin: 155.87px 240.39px;" id="elky6lntlamyd" class="animable"></path><path d="M162.73,251.69a.79.79,0,0,1,.38.73v.49a.79.79,0,0,1-.38.73l-.89.51L163.5,257l.89-.51a.8.8,0,0,1,.83,0,3.7,3.7,0,0,0,.43.25.81.81,0,0,1,.43.7v1h3.33v-1a.8.8,0,0,1,.44-.7,3.7,3.7,0,0,0,.43-.25.8.8,0,0,1,.83,0l.88.51,1.66-2.88-.89-.51a.79.79,0,0,1-.38-.73c0-.08,0-.16,0-.25s0-.16,0-.24a.78.78,0,0,1,.39-.73l.88-.51L172,248.29l-.88.51a.8.8,0,0,1-.83,0,3.7,3.7,0,0,0-.43-.25.8.8,0,0,1-.44-.71v-1h-3.33v1a.81.81,0,0,1-.43.71,3,3,0,0,0-.43.25.8.8,0,0,1-.83,0l-.89-.51-1.66,2.89Zm5-1.75a2.73,2.73,0,1,1-2.73,2.72A2.72,2.72,0,0,1,167.75,249.94Z" style="fill: rgb(69, 90, 100); transform-origin: 167.745px 252.64px;" id="elk8nh37vlym" class="animable"></path><path d="M426.78,157.34c-.43-4.26-3.37-8.51-8.54-8.51s-8.1,4.25-8.53,8.51c-.65,6.59,3.79,12.56,8.53,18C423,169.9,427.43,163.93,426.78,157.34Zm-8.54,4.74a4.67,4.67,0,1,1,4.68-4.67A4.67,4.67,0,0,1,418.24,162.08Z" style="fill: rgb(69, 90, 100); transform-origin: 418.245px 162.085px;" id="ell3yhk8twj0l" class="animable"></path><path d="M357.36,74.65H344.11V66.71h13.25Zm-12.25-1h11.25V67.71H345.11Z" style="fill: rgb(69, 90, 100); transform-origin: 350.735px 70.68px;" id="el79nqphubf2v" class="animable"></path><rect x="342.88" y="64.87" width="15.71" height="4.54" style="fill: rgb(69, 90, 100); transform-origin: 350.735px 67.14px;" id="elzux1uch00dl" class="animable"></rect><path d="M331.41,83.37l-6-6,4-4.05,6,6Zm-4.57-6L331.41,82,334,79.33l-4.57-4.56Z" style="fill: rgb(69, 90, 100); transform-origin: 330.41px 78.345px;" id="elmup08rix43r" class="animable"></path><g id="elg98xieg9elw"><rect x="324.01" y="73.24" width="7.5" height="4.87" style="fill: rgb(69, 90, 100); transform-origin: 327.76px 75.675px; transform: rotate(-45deg);" class="animable"></rect></g><path d="M370.06,83.37l-4.05-4,6-6,4,4.05Zm-2.63-4L370.06,82l4.56-4.56L372,74.77Z" style="fill: rgb(69, 90, 100); transform-origin: 371.01px 78.37px;" id="elznw7qnhet9n" class="animable"></path><g id="elw0r7wh12eq"><rect x="369.96" y="73.24" width="7.5" height="4.87" style="fill: rgb(69, 90, 100); transform-origin: 373.71px 75.675px; transform: rotate(-135deg);" class="animable"></rect></g><rect x="327.46" y="102.67" width="3.81" height="0.49" style="fill: rgb(69, 90, 100); transform-origin: 329.365px 102.915px;" id="elz88y7owyde" class="animable"></rect><polygon points="333.75 112.44 333.99 112.85 330.7 114.76 330.45 114.34 333.75 112.44" style="fill: rgb(69, 90, 100); transform-origin: 332.22px 113.6px;" id="el4ulcgc3xnfw" class="animable"></polygon><polygon points="330.7 91.08 333.99 92.97 333.75 93.39 330.45 91.49 330.7 91.08" style="fill: rgb(69, 90, 100); transform-origin: 332.22px 92.235px;" id="el9i305k91ia6" class="animable"></polygon><polygon points="340.79 119.66 341.2 119.89 339.31 123.19 338.89 122.94 340.79 119.66" style="fill: rgb(69, 90, 100); transform-origin: 340.045px 121.425px;" id="elrgtci8aovk" class="animable"></polygon><polygon points="339.31 82.64 341.2 85.93 340.79 86.18 338.89 82.89 339.31 82.64" style="fill: rgb(69, 90, 100); transform-origin: 340.045px 84.41px;" id="el0c1r43pupv0s" class="animable"></polygon><rect x="350.49" y="79.65" width="0.48" height="3.81" style="fill: rgb(69, 90, 100); transform-origin: 350.73px 81.555px;" id="el44ms8e5cnfe" class="animable"></rect><rect x="350.49" y="122.38" width="0.48" height="3.81" style="fill: rgb(69, 90, 100); transform-origin: 350.73px 124.285px;" id="elywx4nnb9bca" class="animable"></rect><polygon points="350.9 84.77 352.02 104.41 349.5 104.37 350.22 84.75 350.9 84.77" style="fill: rgb(69, 90, 100); transform-origin: 350.76px 94.58px;" id="elvxb96r9n9do" class="animable"></polygon><polygon points="360.68 119.66 362.58 122.94 362.16 123.19 360.26 119.89 360.68 119.66" style="fill: rgb(69, 90, 100); transform-origin: 361.42px 121.425px;" id="el8qsl67vjnkk" class="animable"></polygon><polygon points="362.16 82.64 362.58 82.89 360.68 86.18 360.26 85.93 362.16 82.64" style="fill: rgb(69, 90, 100); transform-origin: 361.42px 84.41px;" id="eltkdnuftnnz" class="animable"></polygon><polygon points="367.71 112.44 371 114.34 370.77 114.76 367.47 112.85 367.71 112.44" style="fill: rgb(69, 90, 100); transform-origin: 369.235px 113.6px;" id="elnn80icdwbbm" class="animable"></polygon><polygon points="367.71 93.39 367.47 92.97 370.77 91.08 371 91.49 367.71 93.39" style="fill: rgb(69, 90, 100); transform-origin: 369.235px 92.235px;" id="el6i5xy9ckdah" class="animable"></polygon><path d="M371.24,81.48a27.86,27.86,0,0,0-3.68-3,29.76,29.76,0,0,0-33.66,0,30.48,30.48,0,0,0-3.68,3,29.78,29.78,0,1,0,41,0ZM350.73,128a25.1,25.1,0,1,1,25.09-25.09A25.09,25.09,0,0,1,350.73,128Z" style="fill: rgb(69, 90, 100); transform-origin: 350.72px 103.062px;" id="el1gzgrc3kldh" class="animable"></path><rect x="370.19" y="102.67" width="3.81" height="0.49" style="fill: rgb(69, 90, 100); transform-origin: 372.095px 102.915px;" id="elsngzx3e0rp" class="animable"></rect><rect x="327.46" y="102.67" width="3.81" height="0.49" style="fill: rgb(69, 90, 100); transform-origin: 329.365px 102.915px;" id="eltgunotro66h" class="animable"></rect><polygon points="333.75 112.44 333.99 112.85 330.7 114.76 330.45 114.34 333.75 112.44" style="fill: rgb(69, 90, 100); transform-origin: 332.22px 113.6px;" id="elo69pmxj63e8" class="animable"></polygon><polygon points="330.7 91.08 333.99 92.97 333.75 93.39 330.45 91.49 330.7 91.08" style="fill: rgb(69, 90, 100); transform-origin: 332.22px 92.235px;" id="elfw9n3xasjpp" class="animable"></polygon><polygon points="340.79 119.66 341.2 119.89 339.31 123.19 338.89 122.94 340.79 119.66" style="fill: rgb(69, 90, 100); transform-origin: 340.045px 121.425px;" id="elystpq503fti" class="animable"></polygon><polygon points="339.31 82.64 341.2 85.93 340.79 86.18 338.89 82.89 339.31 82.64" style="fill: rgb(69, 90, 100); transform-origin: 340.045px 84.41px;" id="el6k75k9qt41f" class="animable"></polygon><rect x="350.49" y="79.65" width="0.48" height="3.81" style="fill: rgb(69, 90, 100); transform-origin: 350.73px 81.555px;" id="el0w0i03u1cmn" class="animable"></rect><rect x="350.49" y="122.38" width="0.48" height="3.81" style="fill: rgb(69, 90, 100); transform-origin: 350.73px 124.285px;" id="elte76snechqj" class="animable"></rect><polygon points="350.9 84.77 352.02 104.41 349.5 104.37 350.22 84.75 350.9 84.77" style="fill: rgb(69, 90, 100); transform-origin: 350.76px 94.58px;" id="elh4ravayy37q" class="animable"></polygon><polygon points="360.68 119.66 362.58 122.94 362.16 123.19 360.26 119.89 360.68 119.66" style="fill: rgb(69, 90, 100); transform-origin: 361.42px 121.425px;" id="ely6fxg01cfa" class="animable"></polygon><polygon points="362.16 82.64 362.58 82.89 360.68 86.18 360.26 85.93 362.16 82.64" style="fill: rgb(69, 90, 100); transform-origin: 361.42px 84.41px;" id="elhnf27a78kwh" class="animable"></polygon><polygon points="367.71 112.44 371 114.34 370.77 114.76 367.47 112.85 367.71 112.44" style="fill: rgb(69, 90, 100); transform-origin: 369.235px 113.6px;" id="elgp890zzapy" class="animable"></polygon><polygon points="367.71 93.39 367.47 92.97 370.77 91.08 371 91.49 367.71 93.39" style="fill: rgb(69, 90, 100); transform-origin: 369.235px 92.235px;" id="elppm3qsq23hq" class="animable"></polygon><path d="M370.35,82.37a26.79,26.79,0,0,0-3.62-3h0A28.44,28.44,0,0,0,334.44,79a30.68,30.68,0,0,0-3.69,3,28.42,28.42,0,1,0,39.6.36ZM350.73,128a25.1,25.1,0,1,1,25.09-25.09A25.09,25.09,0,0,1,350.73,128Z" style="fill: rgb(69, 90, 100); transform-origin: 350.365px 102.571px;" id="el7zfojp5hrd8" class="animable"></path><rect x="370.19" y="102.67" width="3.81" height="0.49" style="fill: rgb(69, 90, 100); transform-origin: 372.095px 102.915px;" id="el76fgwgpt1xp" class="animable"></rect><rect x="327.46" y="102.67" width="3.81" height="0.49" style="fill: rgb(69, 90, 100); transform-origin: 329.365px 102.915px;" id="elr38nhu2nyo8" class="animable"></rect><polygon points="333.75 112.44 333.99 112.85 330.7 114.76 330.45 114.34 333.75 112.44" style="fill: rgb(69, 90, 100); transform-origin: 332.22px 113.6px;" id="eloqst6hl0fl" class="animable"></polygon><polygon points="330.7 91.08 333.99 92.97 333.75 93.39 330.45 91.49 330.7 91.08" style="fill: rgb(69, 90, 100); transform-origin: 332.22px 92.235px;" id="el51psha1knom" class="animable"></polygon><polygon points="340.79 119.66 341.2 119.89 339.31 123.19 338.89 122.94 340.79 119.66" style="fill: rgb(69, 90, 100); transform-origin: 340.045px 121.425px;" id="el7wdntr09hz4" class="animable"></polygon><polygon points="339.31 82.64 341.2 85.93 340.79 86.18 338.89 82.89 339.31 82.64" style="fill: rgb(69, 90, 100); transform-origin: 340.045px 84.41px;" id="elagwuenwr8hc" class="animable"></polygon><rect x="350.49" y="79.65" width="0.48" height="3.81" style="fill: rgb(69, 90, 100); transform-origin: 350.73px 81.555px;" id="ell8jexenx8l" class="animable"></rect><rect x="350.49" y="122.38" width="0.48" height="3.81" style="fill: rgb(69, 90, 100); transform-origin: 350.73px 124.285px;" id="elc50jb0aso2o" class="animable"></rect><polygon points="350.9 84.77 352.02 104.41 349.5 104.37 350.22 84.75 350.9 84.77" style="fill: rgb(69, 90, 100); transform-origin: 350.76px 94.58px;" id="ellemj45s74e" class="animable"></polygon><polygon points="360.68 119.66 362.58 122.94 362.16 123.19 360.26 119.89 360.68 119.66" style="fill: rgb(69, 90, 100); transform-origin: 361.42px 121.425px;" id="elkq42hjj4vfh" class="animable"></polygon><polygon points="362.16 82.64 362.58 82.89 360.68 86.18 360.26 85.93 362.16 82.64" style="fill: rgb(69, 90, 100); transform-origin: 361.42px 84.41px;" id="elc9oyphmd8y4" class="animable"></polygon><polygon points="367.71 112.44 371 114.34 370.77 114.76 367.47 112.85 367.71 112.44" style="fill: rgb(69, 90, 100); transform-origin: 369.235px 113.6px;" id="eldkcecs9bmuo" class="animable"></polygon><polygon points="367.71 93.39 367.47 92.97 370.77 91.08 371 91.49 367.71 93.39" style="fill: rgb(69, 90, 100); transform-origin: 369.235px 92.235px;" id="eldllmby07kag" class="animable"></polygon><rect x="370.19" y="102.67" width="3.81" height="0.49" style="fill: rgb(69, 90, 100); transform-origin: 372.095px 102.915px;" id="elu1oupcp41yl" class="animable"></rect><rect x="350.49" y="79.65" width="0.48" height="3.81" style="fill: rgb(69, 90, 100); transform-origin: 350.73px 81.555px;" id="el8egh80cgwwf" class="animable"></rect><polygon points="341.2 85.93 340.79 86.18 338.89 82.89 339.31 82.64 341.2 85.93" style="fill: rgb(69, 90, 100); transform-origin: 340.045px 84.41px;" id="eldykaisicliv" class="animable"></polygon><polygon points="333.99 92.97 333.75 93.39 330.45 91.49 330.7 91.08 333.99 92.97" style="fill: rgb(69, 90, 100); transform-origin: 332.22px 92.235px;" id="elag1hhgcmqe5" class="animable"></polygon><rect x="327.46" y="102.67" width="3.81" height="0.49" style="fill: rgb(69, 90, 100); transform-origin: 329.365px 102.915px;" id="elvwg9vtzybek" class="animable"></rect><polygon points="333.99 112.85 330.7 114.76 330.45 114.34 333.75 112.44 333.99 112.85" style="fill: rgb(69, 90, 100); transform-origin: 332.22px 113.6px;" id="el2joykr4276u" class="animable"></polygon><polygon points="341.2 119.89 339.31 123.19 338.89 122.94 340.79 119.66 341.2 119.89" style="fill: rgb(69, 90, 100); transform-origin: 340.045px 121.425px;" id="eliuy14jxxvfo" class="animable"></polygon><rect x="350.49" y="122.38" width="0.48" height="3.81" style="fill: rgb(69, 90, 100); transform-origin: 350.73px 124.285px;" id="elfl1hvwq3mkf" class="animable"></rect><polygon points="362.58 122.94 362.16 123.19 360.26 119.89 360.68 119.66 362.58 122.94" style="fill: rgb(69, 90, 100); transform-origin: 361.42px 121.425px;" id="elrce8jvom39" class="animable"></polygon><polygon points="371 114.34 370.77 114.76 367.47 112.85 367.71 112.44 371 114.34" style="fill: rgb(69, 90, 100); transform-origin: 369.235px 113.6px;" id="elzfzl0eyzv9q" class="animable"></polygon><rect x="370.19" y="102.67" width="3.81" height="0.49" style="fill: rgb(69, 90, 100); transform-origin: 372.095px 102.915px;" id="elk0rv4301faf" class="animable"></rect><polygon points="371 91.49 367.71 93.39 367.47 92.97 370.77 91.08 371 91.49" style="fill: rgb(69, 90, 100); transform-origin: 369.235px 92.235px;" id="el14umep1jlshg" class="animable"></polygon><polygon points="362.58 82.89 360.68 86.18 360.26 85.93 362.16 82.64 362.58 82.89" style="fill: rgb(69, 90, 100); transform-origin: 361.42px 84.41px;" id="elw0fmtpt0qa" class="animable"></polygon><polygon points="352.02 104.41 349.5 104.37 350.22 84.75 350.9 84.77 352.02 104.41" style="fill: rgb(69, 90, 100); transform-origin: 350.76px 94.58px;" id="eldti048mvlhs" class="animable"></polygon><path d="M351.59,102.91a.86.86,0,1,1-.86-.86A.86.86,0,0,1,351.59,102.91Z" style="fill: rgb(69, 90, 100); transform-origin: 350.73px 102.91px;" id="elufict2ygk8" class="animable"></path></g><g id="freepik--light-bulb--inject-2" class="animable" style="transform-origin: 250.185px 149.41px;"><path d="M272.89,147.6c-1.74,14.91-11.32,17.65-12.92,21.63a68.21,68.21,0,0,0-2,7.62H242.4a66.68,66.68,0,0,0-2-7.63c-1.59-4-11.18-6.71-12.92-21.62-1.15-9.8,6.22-25.27,22.7-25.27S274,137.8,272.89,147.6Z" style="fill: rgb(80, 200, 120); transform-origin: 250.181px 149.59px;" id="elogv6lt4922a" class="animable"></path><g id="elejb7r56k1fg"><rect x="243.55" y="152.88" width="1" height="25.21" style="fill: rgb(255, 255, 255); transform-origin: 244.05px 165.485px; transform: rotate(-10.58deg);" class="animable"></rect></g><g id="el8ipnbm4pvf8"><rect x="243.73" y="164.98" width="25.21" height="1" style="fill: rgb(255, 255, 255); transform-origin: 256.335px 165.48px; transform: rotate(-79.41deg);" class="animable"></rect></g><path d="M250.19,161.38c-1.24,0-2.49-1-3.52-2.75,0-.06-.07-.12-.1-.19a1.87,1.87,0,0,1-1.33.7c-2.37,0-3.32-4.85-3.36-5l.5-.1c.24,1.3,1.23,4.65,2.86,4.65a1.56,1.56,0,0,0,1.08-.67c-1-2-1.55-4.65-.83-5.9a1.25,1.25,0,0,1,1.13-.66,1.47,1.47,0,0,1,1.33.75c.73,1.28.19,3.79-.73,5.39a4.25,4.25,0,0,1-.31.47l.2.36c.54.93,1.66,2.5,3.08,2.5h0c.95,0,1.9-.75,2.69-2.12l.18-.32a6.54,6.54,0,0,1-1.42-4.18c0-1.76.67-2.85,1.75-2.85a1.14,1.14,0,0,1,1,.63c.69,1.2.32,4.06-.76,6.32a2.2,2.2,0,0,0,1.5.6c1.4,0,2.64-3.38,3-4.68l.49.13c-.15.52-1.46,5.05-3.49,5.05a2.68,2.68,0,0,1-1.73-.66l-.12.21c-.89,1.55-2,2.37-3.12,2.37Zm3.2-9.47c-.92,0-1.25,1.27-1.25,2.35a6.4,6.4,0,0,0,1.15,3.7c.93-2.05,1.28-4.66.7-5.67A.67.67,0,0,0,253.39,151.91Zm-6.77,0a.73.73,0,0,0-.69.41c-.54.93-.19,3.19.73,5.19l.12-.21c.84-1.45,1.35-3.82.73-4.89A.94.94,0,0,0,246.62,151.91Z" style="fill: rgb(255, 255, 255); transform-origin: 250.25px 156.445px;" id="eliwiuihtsuya" class="animable"></path><rect x="240.58" y="176.19" width="19.22" height="3.76" style="fill: rgb(38, 50, 56); transform-origin: 250.19px 178.07px;" id="elqbnges3yse" class="animable"></rect><rect x="240.58" y="180.55" width="19.22" height="3.76" style="fill: rgb(38, 50, 56); transform-origin: 250.19px 182.43px;" id="elx70bqpwc72b" class="animable"></rect><rect x="240.58" y="184.92" width="19.22" height="3.76" style="fill: rgb(38, 50, 56); transform-origin: 250.19px 186.8px;" id="elmfiobvmcudj" class="animable"></rect><path d="M249.89,116.35a8.86,8.86,0,0,1-.55-3.1,8.62,8.62,0,0,1,.44-3.11,8.84,8.84,0,0,1,.55,3.09A8.64,8.64,0,0,1,249.89,116.35Z" style="fill: rgb(38, 50, 56); transform-origin: 249.835px 113.245px;" id="el3j5nyatp014" class="animable"></path><path d="M235.71,120.3a8.89,8.89,0,0,1-2-2.4,8.73,8.73,0,0,1-1.17-2.92,9.08,9.08,0,0,1,2,2.41A8.68,8.68,0,0,1,235.71,120.3Z" style="fill: rgb(38, 50, 56); transform-origin: 234.125px 117.64px;" id="el1eu7tmufnaa" class="animable"></path><path d="M225.41,130.82a9,9,0,0,1-3-1.07,8.62,8.62,0,0,1-2.47-1.94,9,9,0,0,1,3,1.07A8.62,8.62,0,0,1,225.41,130.82Z" style="fill: rgb(38, 50, 56); transform-origin: 222.675px 129.315px;" id="elttz4tehx8d" class="animable"></path><path d="M221.75,145.08a8.86,8.86,0,0,1-3.1.55,8.62,8.62,0,0,1-3.11-.44,9.8,9.8,0,0,1,6.21-.11Z" style="fill: rgb(38, 50, 56); transform-origin: 218.645px 145.133px;" id="ellx5uzv380zq" class="animable"></path><path d="M225.71,159.25a10,10,0,0,1-5.32,3.21,8.54,8.54,0,0,1,2.4-2A9,9,0,0,1,225.71,159.25Z" style="fill: rgb(38, 50, 56); transform-origin: 223.05px 160.855px;" id="elouhq3re2bz" class="animable"></path><path d="M275,158.75a9,9,0,0,1,3,1.06,8.79,8.79,0,0,1,2.47,1.94,8.8,8.8,0,0,1-3-1.06A9.13,9.13,0,0,1,275,158.75Z" style="fill: rgb(38, 50, 56); transform-origin: 277.735px 160.25px;" id="elsmz1s1qw4w" class="animable"></path><path d="M278.62,144.49a9.11,9.11,0,0,1,3.1-.56,8.85,8.85,0,0,1,3.11.45,10,10,0,0,1-6.21.11Z" style="fill: rgb(38, 50, 56); transform-origin: 281.725px 144.428px;" id="elu6cual0ni4p" class="animable"></path><path d="M274.67,130.31a8.89,8.89,0,0,1,2.4-2,8.65,8.65,0,0,1,2.92-1.17,9.08,9.08,0,0,1-2.41,2A8.68,8.68,0,0,1,274.67,130.31Z" style="fill: rgb(38, 50, 56); transform-origin: 277.33px 128.725px;" id="eldv9ehf8yw4" class="animable"></path><path d="M264.15,120a9,9,0,0,1,1.07-3,8.62,8.62,0,0,1,1.94-2.47,10,10,0,0,1-3,5.43Z" style="fill: rgb(38, 50, 56); transform-origin: 265.655px 117.265px;" id="el2mfrz1e3t03" class="animable"></path></g><g id="freepik--Character--inject-2" class="animable" style="transform-origin: 249.999px 323.795px;"><path d="M288.1,276.53a.88.88,0,0,1-.56,1l-3.35.58c-4-8.12-8.11-14.47-6.94-11.95a46.76,46.76,0,0,1,3.64,12.5c-1.47.24-4.91.77-6.63,1-4.41-14.56-9.1-25.21-8.48-21.83,2.49,13.59,2.26,18.07,1.94,22.86-16,2.45-37,5.41-52.3,7.2-2.75-8-5.36-16.73-5.56-16.08-1.52,4.84-1.28,11.62-.7,16.8-4.87.53-8.76.86-11.15.94,0,0-2-6.78-2.41-9a50.6,50.6,0,0,1-.37-17.44c.93-5.91,3.11-11.27,5.14-16.75a.43.43,0,0,1,0-.12s0,0,0,0a50.33,50.33,0,0,0,2.77-11.11.2.2,0,0,0,0-.09,49.42,49.42,0,0,0,.27-8.34c-.51-10.19,3.77-19.5,12.36-23.08,14.79-18.65,32.5-13.26,39.15-.8.64,1.21,1.29,2.61,1.94,4.15l0,0c2.43,5.67,4.89,13.1,7,18.83a0,0,0,0,0,0,0s0,0,0,.06v0a59.65,59.65,0,0,0,2.82,6.57C272.37,242.62,282.8,247.62,288.1,276.53Z" style="fill: rgb(38, 50, 56); transform-origin: 241.382px 240.521px;" id="ela4q1dbvos6w" class="animable"></path><path d="M212.31,206.76c-5.45,3.86-8.46,9-8.48,16.46,0,4.37.23,8.6-.83,12.82s-3.21,8.06-5.39,11.77c-3.48,5.88-5.7,11.61-5.47,18.93s1.61,16.09,4.76,22.72c0,0,.08,0,.06,0-2.73-6.78-3.94-16.42-3.65-23.84.31-8.14,3.95-13.62,7.56-20.16a34.37,34.37,0,0,0,4.42-17c0-3.7-.51-7.49.45-11.07,1.15-4.28,4.11-7.23,7.08-9.88C213.22,207.11,212.73,206.47,212.31,206.76Z" style="fill: rgb(38, 50, 56); transform-origin: 202.546px 248.073px;" id="elhvd798w417" class="animable"></path><path d="M278,242.81c-4.82-5.32-9.7-9.77-13-16.64-3-6.26-5.06-13-8.08-19.24a.08.08,0,1,0-.15.06c4.84,11.16,6.91,22.7,15,31.67,4.42,4.87,8.78,9.35,12,15.4a60.92,60.92,0,0,1,6.42,20.41c0,.26.34.21.33,0A49.87,49.87,0,0,0,278,242.81Z" style="fill: rgb(38, 50, 56); transform-origin: 273.642px 240.763px;" id="el5eneqmax7e7" class="animable"></path><path d="M266.34,284c31.61,33.13,70.91,102.37,63.14,116.14-8.66,15.34-54.24-31.82-52.81-34.08,1.22-1.91-14.53-43.6-26-74.09S258.53,275.76,266.34,284Z" style="fill: rgb(247, 169, 160); transform-origin: 288.798px 338.285px;" id="eldkt85lebwn8" class="animable"></path><path d="M305.07,323.67l-45.38,8.18s-11.33-32.16-13.58-50c-1.26-10,4.62-10.42,12-5.1C284,295.34,305.07,323.67,305.07,323.67Z" style="fill: rgb(80, 200, 120); transform-origin: 275.505px 302.608px;" id="elq5smn9ugth" class="animable"></path><path d="M251.7,292.28a.85.85,0,1,1-.85-.85A.85.85,0,0,1,251.7,292.28Zm13.32-.85a.85.85,0,1,0,.85.85A.85.85,0,0,0,265,291.43Zm-7.08-11a.85.85,0,1,0,.85.85A.85.85,0,0,0,257.94,280.47ZM265,313.53a.85.85,0,1,0,.85.85A.85.85,0,0,0,265,313.53Zm14.17,0a.85.85,0,1,0,.85.85A.85.85,0,0,0,279.19,313.53Zm14.17,0a.85.85,0,1,0,.85.85A.85.85,0,0,0,293.36,313.53Zm-35.42-11a.85.85,0,1,0,.85.85A.86.86,0,0,0,257.94,302.57Zm14.16,0a.85.85,0,1,0,.85.85A.86.86,0,0,0,272.1,302.57Zm14.17,0a.85.85,0,1,0,.85.85A.86.86,0,0,0,286.27,302.57Zm-28.33,22.11a.86.86,0,0,0-.6.24c.16.51.33,1,.48,1.45h.12a.84.84,0,0,0,.84-.85A.83.83,0,0,0,257.94,324.68Zm14.16,0a.86.86,0,1,0,.85.86A.86.86,0,0,0,272.1,324.67Zm14.17,0a.86.86,0,1,0,.85.86A.86.86,0,0,0,286.27,324.67Z" style="fill: rgb(255, 255, 255); transform-origin: 272.095px 303.395px;" id="elus6t2l0an8k" class="animable"></path><path d="M260,324.41c6.88-1.83,25.68-6.27,38.28-7.56.08,0,.14.28.06.3-10.31,2.65-31.23,6.45-38.24,7.69C260,324.86,259.85,324.45,260,324.41Z" style="fill: rgb(38, 50, 56); transform-origin: 279.157px 320.845px;" id="elhgurmxvj96n" class="animable"></path><g id="elo0k8rj3egsb"><path d="M299,324.77l-39.31,7.07s-11.32-32.16-13.57-50c-.81-6.4,1.32-8.87,4.89-8.43Z" style="opacity: 0.1; transform-origin: 272.474px 302.6px;" class="animable"></path></g><path d="M284.78,398.73h-115s10.47-80.24,47.52-122.44c10-11.38,28.13-8,36.7-.31a80.58,80.58,0,0,1,8.35,9.48c7.79,10,20.51,34.05,21.7,40.55,2,10.75-7.54,22.36-7.54,22.36Z" style="fill: rgb(80, 200, 120); transform-origin: 227.28px 333.834px;" id="elsfg6fe5qwti" class="animable"></path><path d="M237.53,270.18a.85.85,0,1,1-.85-.85A.85.85,0,0,1,237.53,270.18Zm-29.18,21.25a.85.85,0,1,0,.85.85A.85.85,0,0,0,208.35,291.43Zm14.17,0a.85.85,0,1,0,.85.85A.85.85,0,0,0,222.52,291.43Zm14.16,0a.85.85,0,1,0,.85.85A.85.85,0,0,0,236.68,291.43Zm14.17,0a.85.85,0,1,0,.85.85A.85.85,0,0,0,250.85,291.43Zm14.17,0a.85.85,0,1,0,.85.85A.85.85,0,0,0,265,291.43Zm-49.59-11a.85.85,0,1,0,.85.85A.85.85,0,0,0,215.43,280.47Zm14.17,0a.85.85,0,1,0,.85.85A.85.85,0,0,0,229.6,280.47Zm14.17,0a.85.85,0,1,0,.85.85A.85.85,0,0,0,243.77,280.47Zm15,.55-.35-.43h0a.85.85,0,1,0,.42.74A.65.65,0,0,0,258.72,281Zm-64.54,32.51h-.12c-.19.44-.39.88-.58,1.31h0a.85.85,0,1,0,.7-1.33Zm14.17,0a.85.85,0,1,0,.85.85A.85.85,0,0,0,208.35,313.53Zm14.17,0a.85.85,0,1,0,.85.85A.85.85,0,0,0,222.52,313.53Zm14.16,0a.85.85,0,1,0,.85.85A.85.85,0,0,0,236.68,313.53Zm14.17,0a.85.85,0,1,0,.85.85A.85.85,0,0,0,250.85,313.53Zm14.17,0a.85.85,0,1,0,.85.85A.85.85,0,0,0,265,313.53Zm14,0a.83.83,0,0,0-.64.81.86.86,0,0,0,.85.86.81.81,0,0,0,.51-.18C279.47,314.56,279.23,314.07,279,313.57Zm-77.72-11a.85.85,0,1,0,.85.85A.86.86,0,0,0,201.26,302.57Zm14.17,0a.85.85,0,1,0,.85.85A.86.86,0,0,0,215.43,302.57Zm14.17,0a.85.85,0,1,0,.85.85A.86.86,0,0,0,229.6,302.57Zm14.17,0a.85.85,0,1,0,.85.85A.86.86,0,0,0,243.77,302.57Zm14.17,0a.85.85,0,1,0,.85.85A.86.86,0,0,0,257.94,302.57Zm14.16,0a.85.85,0,1,0,.85.85A.86.86,0,0,0,272.1,302.57Zm-77.92,33.06a.85.85,0,1,0,.85.85A.85.85,0,0,0,194.18,335.63Zm14.17,0a.85.85,0,1,0,.85.85A.85.85,0,0,0,208.35,335.63Zm14.17,0a.85.85,0,1,0,.85.85A.85.85,0,0,0,222.52,335.63Zm14.16,0a.85.85,0,1,0,.85.85A.85.85,0,0,0,236.68,335.63Zm14.17,0a.85.85,0,1,0,.85.85A.85.85,0,0,0,250.85,335.63Zm14.17,0a.85.85,0,1,0,.85.85A.85.85,0,0,0,265,335.63Zm14.17,0a.85.85,0,1,0,.85.85A.85.85,0,0,0,279.19,335.63Zm-77.93-11a.86.86,0,1,0,.85.86A.86.86,0,0,0,201.26,324.67Zm14.17,0a.86.86,0,1,0,.85.86A.86.86,0,0,0,215.43,324.67Zm14.17,0a.86.86,0,1,0,.85.86A.86.86,0,0,0,229.6,324.67Zm14.17,0a.86.86,0,1,0,.85.86A.86.86,0,0,0,243.77,324.67Zm14.17,0a.86.86,0,1,0,.85.86A.86.86,0,0,0,257.94,324.67Zm14.16,0a.86.86,0,1,0,.85.86A.86.86,0,0,0,272.1,324.67ZM180,357.73a.85.85,0,1,0,.85.85A.85.85,0,0,0,180,357.73Zm14.17,0a.85.85,0,1,0,.85.85A.85.85,0,0,0,194.18,357.73Zm14.17,0a.85.85,0,1,0,.85.85A.85.85,0,0,0,208.35,357.73Zm14.17,0a.85.85,0,1,0,.85.85A.85.85,0,0,0,222.52,357.73Zm14.16,0a.85.85,0,1,0,.85.85A.85.85,0,0,0,236.68,357.73Zm14.17,0a.85.85,0,1,0,.85.85A.85.85,0,0,0,250.85,357.73Zm14.17,0a.85.85,0,1,0,.85.85A.85.85,0,0,0,265,357.73Zm-77.92-11a.85.85,0,1,0,.85.85A.86.86,0,0,0,187.1,346.78Zm14.16,0a.85.85,0,1,0,.85.85A.85.85,0,0,0,201.26,346.78Zm14.17,0a.85.85,0,1,0,.85.85A.85.85,0,0,0,215.43,346.78Zm14.17,0a.85.85,0,1,0,.85.85A.85.85,0,0,0,229.6,346.78Zm14.17,0a.85.85,0,1,0,.85.85A.85.85,0,0,0,243.77,346.78Zm14.17,0a.85.85,0,1,0,.85.85A.85.85,0,0,0,257.94,346.78Zm14.16,0a.85.85,0,1,0,.85.85A.85.85,0,0,0,272.1,346.78ZM180,379.83a.85.85,0,1,0,.85.85A.85.85,0,0,0,180,379.83Zm14.17,0a.85.85,0,1,0,.85.85A.85.85,0,0,0,194.18,379.83Zm14.17,0a.85.85,0,1,0,.85.85A.85.85,0,0,0,208.35,379.83Zm14.17,0a.85.85,0,1,0,.85.85A.85.85,0,0,0,222.52,379.83Zm14.16,0a.85.85,0,1,0,.85.85A.85.85,0,0,0,236.68,379.83Zm14.17,0a.85.85,0,1,0,.85.85A.85.85,0,0,0,250.85,379.83Zm14.17,0a.85.85,0,1,0,.85.85A.85.85,0,0,0,265,379.83Zm14.17,0a.85.85,0,1,0,.85.85A.85.85,0,0,0,279.19,379.83ZM187.1,368.88a.85.85,0,1,0,.85.85A.86.86,0,0,0,187.1,368.88Zm14.16,0a.85.85,0,1,0,.85.85A.85.85,0,0,0,201.26,368.88Zm14.17,0a.85.85,0,1,0,.85.85A.85.85,0,0,0,215.43,368.88Zm14.17,0a.85.85,0,1,0,.85.85A.85.85,0,0,0,229.6,368.88Zm14.17,0a.85.85,0,1,0,.85.85A.85.85,0,0,0,243.77,368.88Zm14.17,0a.85.85,0,1,0,.85.85A.85.85,0,0,0,257.94,368.88Zm14.16,0a.85.85,0,1,0,.85.85A.85.85,0,0,0,272.1,368.88ZM172.93,391a.85.85,0,1,0,.85.85A.85.85,0,0,0,172.93,391Zm14.17,0a.85.85,0,1,0,.85.85A.86.86,0,0,0,187.1,391Zm14.16,0a.85.85,0,1,0,.85.85A.85.85,0,0,0,201.26,391Zm14.17,0a.85.85,0,1,0,.85.85A.85.85,0,0,0,215.43,391Zm14.17,0a.85.85,0,1,0,.85.85A.85.85,0,0,0,229.6,391Zm14.17,0a.85.85,0,1,0,.85.85A.85.85,0,0,0,243.77,391Zm14.17,0a.85.85,0,1,0,.85.85A.85.85,0,0,0,257.94,391Zm14.16,0a.85.85,0,1,0,.85.85A.85.85,0,0,0,272.1,391Z" style="fill: rgb(255, 255, 255); transform-origin: 226.105px 331.015px;" id="eltvrjtfsle6r" class="animable"></path><path d="M285.19,325.43C284.13,321,281.67,317,279.5,313c-2.29-4.18-4.69-8.3-7.15-12.38l-.27-.44c-.41-1.3-1-2.58-1.49-3.84-.64-1.62-1.32-3.22-1.95-4.85,0-.05-.11,0-.09,0,.51,1.69,1,3.38,1.64,5,.16.42.32.86.48,1.3-.83-1.37-1.67-2.72-2.53-4.07-1.46-2.29-3-4.52-4.47-6.81,0,0-.13,0-.09.06,2.35,4,4.6,8.08,6.95,12.09s4.63,8.06,6.82,12.16q1.63,3,3.16,6.15a50.65,50.65,0,0,1,2.64,6,19.45,19.45,0,0,1,.09,12.32c-1.42,4.53-3.94,8.65-6.34,12.71-.1.17.15.36.27.2C282.21,342,287.28,334.12,285.19,325.43Z" style="fill: rgb(38, 50, 56); transform-origin: 274.623px 317.785px;" id="eltzqwgeviy7l" class="animable"></path><path d="M329.48,400.09C322.07,410.32,302.34,412,253,420.77c-6.83,1.22-28.38-44.61-21.16-46.29,9.1-2.11,44.84-8.33,47.51-8.45C301.91,365,334.51,393.15,329.48,400.09Z" style="fill: rgb(247, 169, 160); transform-origin: 280.19px 393.398px;" id="eltedava1e2i" class="animable"></path><path d="M241.75,372.4s-20.87,2.8-31.38,7.67C196.3,386.58,186.83,398,183.15,403c-7.68,10.49-19,41.16-10.74,46,7.48,4.34,17.47-27.59,17.47-27.59s-15.55,30.88-5.58,34.45,19.45-34.15,19.45-34.15-15.27,32.09-4.41,34.15c8.21,1.56,18.73-32.13,18.73-32.13s-12.94,27.67-4.56,29.63c9.25,2.18,20.91-28.31,20.91-28.31,22.12,1.42,33.24-7,40.44-13.86C276.6,409.5,241.75,372.4,241.75,372.4Z" style="fill: rgb(247, 169, 160); transform-origin: 222.223px 414.249px;" id="el5xk9sed2pqt" class="animable"></path><path d="M194.57,410.37c-1.95,3.56-4,7.15-5.59,10.87s-3.15,7.51-4.43,11.36c-3.14,9.47-3.63,15.89-3.55,15.49,1.73-9.29,7.38-22.71,9-26.44s3.08-7.51,4.71-11.23C194.76,410.33,194.62,410.28,194.57,410.37Z" style="fill: rgb(38, 50, 56); transform-origin: 187.856px 429.215px;" id="el24s8mmq4qhp" class="animable"></path><path d="M208.12,416c-2.3,4.65-4.76,9.19-6.86,14s-3.65,9.41-5.41,14.27c-.13.38.11.33.26,0,1.95-4.8,4.13-9.08,6.13-13.84s3.83-9.62,6-14.3C208.27,416,208.16,416,208.12,416Z" style="fill: rgb(38, 50, 56); transform-origin: 202.029px 430.268px;" id="elwt6dx4ka9lq" class="animable"></path><path d="M220.63,418.79c-3.89,6.94-6.49,14.58-8.86,22.14-.12.37.19.27.33-.11,2.81-7.41,5-13.24,8.77-21.89C220.93,418.79,220.71,418.65,220.63,418.79Z" style="fill: rgb(38, 50, 56); transform-origin: 216.312px 429.947px;" id="elg025d09p5jd" class="animable"></path><path d="M301.14,371.55c-3.28-2.07-12.56-6.95-21.69-5.6a.08.08,0,0,0,0,.16c7.52,0,18.26,3.82,21.61,5.57C301.15,371.73,301.22,371.6,301.14,371.55Z" style="fill: rgb(38, 50, 56); transform-origin: 290.273px 368.704px;" id="elfscyyxkdj7" class="animable"></path><path d="M230.16,269.29c-3.75,1.93-3.84,7.11.47,12.88C237.53,291.43,257,299,257,299s1.09-18-4.87-26.29C248.13,267.2,234.66,267,230.16,269.29Z" style="fill: rgb(247, 169, 160); transform-origin: 242.225px 283.456px;" id="elk1r5x5keilp" class="animable"></path><path d="M231,273.3c.66,1.84,11.17,13.08,19.79,11.65,2.8-.47.92-15.9.92-15.9l.12-1.17,1.68-16.39-20.18-9.82-2.9-1.28s-.16,4.52-.31,10.14c0,.26,0,.52,0,.8s0,.62,0,.92c0,.84-.06,1.7-.08,2.55,0,.65,0,1.28,0,2s0,1.35,0,2A105.83,105.83,0,0,0,231,273.3Z" style="fill: rgb(247, 169, 160); transform-origin: 241.775px 262.733px;" id="el8i2h53cyo4d" class="animable"></path><path d="M230.16,250.53a33.08,33.08,0,0,0,21.71,17.35l1.68-16.39-20.18-9.82-2.9-1.28S230.31,244.91,230.16,250.53Z" style="fill: rgb(38, 50, 56); transform-origin: 241.855px 254.135px;" id="el08ef0p05vpri" class="animable"></path><path d="M272.73,223.91c7.54,27.92-8.33,35.58-14.35,37.2-5.47,1.47-24.27,5.78-34.65-21.21s.21-39.32,12.54-43.34S265.19,196,272.73,223.91Z" style="fill: rgb(247, 169, 160); transform-origin: 247.121px 228.726px;" id="ele0fg0fm3lwe" class="animable"></path><path d="M265.57,218.86c-.68.06-1.32,0-2,0a3.26,3.26,0,0,1-2-.38,1,1,0,0,1-.26-1.23,2.53,2.53,0,0,1,2.33-1.11,3.7,3.7,0,0,1,2.58.8A1.1,1.1,0,0,1,265.57,218.86Z" style="fill: rgb(38, 50, 56); transform-origin: 263.895px 217.509px;" id="elbkjci2zzn0r" class="animable"></path><path d="M247.67,222.87c.65-.23,1.21-.54,1.82-.82a3.15,3.15,0,0,0,1.7-1.19,1,1,0,0,0-.26-1.22,2.55,2.55,0,0,0-2.59-.06,3.83,3.83,0,0,0-2,1.8A1.1,1.1,0,0,0,247.67,222.87Z" style="fill: rgb(38, 50, 56); transform-origin: 248.772px 221.087px;" id="elppw63z4tj5a" class="animable"></path><path d="M253,229.18c0-.07-.13.13-.11.21.52,1.9.8,4.16-.78,5.21-.05,0,0,.13,0,.11C254.17,233.9,253.77,230.9,253,229.18Z" style="fill: rgb(38, 50, 56); transform-origin: 252.856px 231.939px;" id="el0x619bdqk70c" class="animable"></path><path d="M250.79,227.6c-3.14.5-1.9,6.74,1,6.27S253.41,227.17,250.79,227.6Z" style="fill: rgb(38, 50, 56); transform-origin: 251.197px 230.737px;" id="elo8t187g57g" class="animable"></path><path d="M249.63,228.17c-.48.46-.89,1.19-1.53,1.39s-1.45-.32-2.07-.84c-.06-.06-.11,0-.09.09.22,1.2.92,2.33,2.24,2.25s1.83-1.29,1.89-2.55C250.08,228.27,249.82,228,249.63,228.17Z" style="fill: rgb(38, 50, 56); transform-origin: 248.003px 229.59px;" id="elbl6oltpud8t" class="animable"></path><path d="M263.67,226.19c0-.08.17.06.18.14.31,1.95,1,4.12,2.86,4.43.06,0,.07.11,0,.11C264.52,231,263.65,228.08,263.67,226.19Z" style="fill: rgb(38, 50, 56); transform-origin: 265.214px 228.52px;" id="el6e2lgurdvke" class="animable"></path><path d="M265,223.84c3.06-.83,4.5,5.36,1.66,6.13S262.44,224.54,265,223.84Z" style="fill: rgb(38, 50, 56); transform-origin: 265.92px 226.9px;" id="eljiv5l94oygr" class="animable"></path><path d="M266.39,224c.57.21,1.19.69,1.78.6s1-.9,1.32-1.64c0-.08.09,0,.11,0,.31,1.18.21,2.5-.88,3s-2-.39-2.54-1.5C266.08,224.23,266.17,223.86,266.39,224Z" style="fill: rgb(38, 50, 56); transform-origin: 267.946px 224.514px;" id="elq3y0rn43que" class="animable"></path><path d="M255.21,244.8c.53.39,1.09.94,1.81.89a5.06,5.06,0,0,0,2-.81s.13,0,.1.09a2.65,2.65,0,0,1-2.31,1.44,2.11,2.11,0,0,1-1.8-1.49C255,244.81,255.13,244.75,255.21,244.8Z" style="fill: rgb(38, 50, 56); transform-origin: 257.067px 245.596px;" id="elw6vb4d0rp9f" class="animable"></path><path d="M262.6,235.63s1,2.81,1.3,4.17a7.5,7.5,0,0,1-7.61-.69c-.13-.1,0-.29.16-.23a10,10,0,0,0,6.28.44c0-.4-1.89-4.75-1.68-4.81a11.89,11.89,0,0,1,3.25.05c-1.94-5.91-4.81-11.46-6.66-17.37-.06-.21.24-.34.34-.16,3.42,5.6,5.8,12.35,8,18.4C266.22,236.18,263.19,235.75,262.6,235.63Z" style="fill: rgb(38, 50, 56); transform-origin: 261.115px 228.736px;" id="el8kc26f486ko" class="animable"></path><path d="M262,240.05a7.28,7.28,0,0,1-2.41,2.74,3.25,3.25,0,0,1-1.91.49c-1.47-.09-1.75-1.37-1.7-2.52a7.61,7.61,0,0,1,.3-1.8A9.31,9.31,0,0,0,262,240.05Z" style="fill: rgb(38, 50, 56); transform-origin: 258.987px 241.123px;" id="eldg7fon1pau8" class="animable"></path><path d="M259.6,242.79a3.25,3.25,0,0,1-1.91.49c-1.47-.09-1.75-1.37-1.7-2.52C257.51,240.63,259.19,241.36,259.6,242.79Z" style="fill: rgb(255, 154, 187); transform-origin: 257.792px 242.015px;" id="el64ec0osa0x4" class="animable"></path><path d="M223.38,239.42s-10.12-8.21-10-22.09,15.34-25.74,32.68-24c0,0-22.78,5.69-25.79,18.34S223.38,239.42,223.38,239.42Z" style="fill: rgb(80, 200, 120); transform-origin: 229.719px 216.29px;" id="elm8s7ie4rlck" class="animable"></path><path d="M228.76,241.47c5.25-1,2.78-13,2.78-13s20.29-10.64,16.41-28.73c0,0,7.32,10,20.21,11.33,0,0-7-18.94-23.42-17.7,0,0-21.1-.72-26.83,17.71S225.24,242.15,228.76,241.47Z" style="fill: rgb(38, 50, 56); transform-origin: 242.318px 217.404px;" id="el5d66ohaj9yh" class="animable"></path><path d="M247.6,198.44a20.08,20.08,0,0,1,1.65,8.3,21,21,0,0,1-1.75,8.39,17.33,17.33,0,0,1-1,1.92L246,218c-.2.3-.41.59-.62.88-.43.58-.84,1.17-1.29,1.73s-1,1-1.48,1.55c-.25.25-.49.52-.75.76l-.82.68-1.66,1.34c-1.18.78-2.39,1.5-3.61,2.2,1.06-.94,2.19-1.76,3.22-2.69l1.5-1.45.74-.72c.23-.25.44-.53.67-.79.43-.54.87-1.07,1.32-1.58s.76-1.14,1.15-1.7l.57-.85.47-.91a15.52,15.52,0,0,0,.9-1.83,23.93,23.93,0,0,0,2-7.92,24.77,24.77,0,0,0,0-4.13A24.3,24.3,0,0,0,247.6,198.44Z" style="fill: rgb(38, 50, 56); transform-origin: 242.511px 212.79px;" id="el3ql99f76q3o" class="animable"></path><path d="M228.64,239.89s-7.8-7.78-11.43-4.84,3.34,15,8.39,15.89a4.88,4.88,0,0,0,6-3.74Z" style="fill: rgb(247, 169, 160); transform-origin: 223.901px 242.741px;" id="elnt689rmf8wk" class="animable"></path><path d="M219.29,238.45a.07.07,0,0,0,0,.13c3.56.75,5.86,3.52,7.65,6.49-1.21-1-2.67-1.48-4.1,0-.08.08,0,.2.12.17a3,3,0,0,1,3.44.45,14.22,14.22,0,0,1,2,2.35c.21.27.72,0,.54-.3a.3.3,0,0,0,0-.08C228.26,243.4,223.91,238.06,219.29,238.45Z" style="fill: rgb(38, 50, 56); transform-origin: 224.112px 243.29px;" id="elzg4f099byfa" class="animable"></path><path d="M228.14,249.18a1.18,1.18,0,1,1-2.34.24,1.18,1.18,0,0,1,2.34-.24Z" style="fill: rgb(255, 255, 255); transform-origin: 226.98px 249.395px;" id="el1mhbra5nwwg" class="animable"></path><path d="M225.07,247.57a.83.83,0,0,1-.75.92.84.84,0,1,1,.75-.92Z" style="fill: rgb(255, 255, 255); transform-origin: 224.235px 247.654px;" id="eluibohlut3qf" class="animable"></path><path d="M217.46,238.33l-1.74,0a.61.61,0,0,1-.63-.6h0a.61.61,0,0,1,.61-.63l1.74,0a.62.62,0,0,1,.63.61h0A.62.62,0,0,1,217.46,238.33Z" style="fill: rgb(80, 200, 120); transform-origin: 216.58px 237.715px;" id="elbkp7sxrqu8b" class="animable"></path><path d="M217.71,240.11l-1.7.4a.62.62,0,0,1-.74-.46h0a.61.61,0,0,1,.46-.74l1.7-.4a.61.61,0,0,1,.74.46h0A.61.61,0,0,1,217.71,240.11Z" style="fill: rgb(80, 200, 120); transform-origin: 216.72px 239.709px;" id="el3n7r46rwk6u" class="animable"></path><path d="M282,255s-3.62-10.08-10.3-7-1.47,12.39-1.47,12.39Z" style="fill: rgb(255, 154, 187); transform-origin: 275.148px 253.902px;" id="ellass83v7tiq" class="animable"></path><g id="elb3ntchn885l"><rect x="285.03" y="253.93" width="12.93" height="75.35" style="fill: rgb(80, 200, 120); transform-origin: 291.495px 291.605px; transform: rotate(155.58deg);" class="animable"></rect></g><g id="el0cp6j8h11at"><rect x="268.83" y="256.79" width="15.09" height="3" style="fill: rgb(55, 71, 79); transform-origin: 276.375px 258.29px; transform: rotate(155.58deg);" class="animable"></rect></g><g id="elx3x7zxbd86q"><rect x="270.2" y="259.81" width="15.09" height="3" style="fill: rgb(55, 71, 79); transform-origin: 277.745px 261.31px; transform: rotate(155.58deg);" class="animable"></rect></g><path d="M301.18,328.58l8.27,6.46,2.72,2.14.21-3.47.58-10.48-2-1.17s-.37,2.2-.39,2.24l-2-1.17s-.38,2.2-.39,2.24l-1.94-1.18s-.4,2.21-.42,2.25L304,325.26s-.4,2.21-.42,2.25l-1.94-1.18S301.19,328.54,301.18,328.58Z" style="fill: rgb(235, 235, 235); transform-origin: 307.07px 329.62px;" id="el02v9rx2v5rm6" class="animable"></path><polygon points="309.45 335.04 312.17 337.18 312.38 333.71 309.45 335.04" style="fill: rgb(55, 71, 79); transform-origin: 310.915px 335.445px;" id="elfmtp011qn5j" class="animable"></polygon><path d="M205.58,290.5c-15,24.53-40.13,76.88-30.48,96.13,9.29,18.54,83.14-8.27,98.12-13.78,6.16-2.26-1.3-53.13-8.12-51.53-15,3.49-46.8,18.65-47.51,18.18S221.41,317,225,295.13C230.25,263.32,216.35,272.86,205.58,290.5Z" style="fill: rgb(247, 169, 160); transform-origin: 224.233px 333.65px;" id="el3rgtiageqnn" class="animable"></path><path d="M310.09,297.1c4.07,4.67-.82,8.8-.82,8.8a11.62,11.62,0,0,1,7,3.59c3.09,3.64-1.27,10.08-1.27,10.08a14.28,14.28,0,0,1,6.8,5c2.6,3.78-.87,10.9-.87,10.9a12.52,12.52,0,0,1,3.22,8.13c-.15,8-10.65,14.42-17.35,18.42-9.95,6-29.36,9.42-33.59,10.87l-26.54-42.51s24.89-26.28,33.16-30.47C288.29,295.59,306.09,292.5,310.09,297.1Z" style="fill: rgb(247, 169, 160); transform-origin: 285.41px 333.855px;" id="elsipsbva4bnj" class="animable"></path><path d="M308.55,305.4c-8.41,1.48-15.93,5.35-23.66,8.8a.15.15,0,0,0,.12.27c7.65-3.52,15.89-5.47,23.66-8.68A.21.21,0,0,0,308.55,305.4Z" style="fill: rgb(38, 50, 56); transform-origin: 296.798px 309.937px;" id="elyne66i8r7s" class="animable"></path><path d="M314.53,319.09a22.58,22.58,0,0,0-5.36,2.28q-2.76,1.39-5.47,2.89c-3.62,2-7.2,4.06-10.71,6.23-.16.1-.05.36.12.27,3.61-2,7.25-3.9,10.95-5.72,1.84-.91,3.7-1.81,5.56-2.69a26.38,26.38,0,0,0,5.14-2.74A.3.3,0,0,0,314.53,319.09Z" style="fill: rgb(38, 50, 56); transform-origin: 303.885px 324.934px;" id="elha6p4e1f6gs" class="animable"></path><path d="M320.79,335.51c-1.66.27-3.28,1.47-4.72,2.3q-2.44,1.41-4.91,2.79c-3.28,1.85-6.56,3.69-9.91,5.42-.16.09,0,.35.12.27,3.41-1.74,6.84-3.44,10.23-5.21q2.5-1.29,5-2.63c1.41-.75,3.26-1.54,4.31-2.78A.1.1,0,0,0,320.79,335.51Z" style="fill: rgb(38, 50, 56); transform-origin: 311.066px 340.898px;" id="ela3q50zt9og8" class="animable"></path><path d="M217.61,339.19a50.15,50.15,0,0,0-6.89,6.66,87.54,87.54,0,0,0-5.69,7.26c0,.06.11.11.16.06,2-2.37,4.26-4.62,6.39-6.93s4.53-4.47,6.5-6.83C218.21,339.25,217.78,339.06,217.61,339.19Z" style="fill: rgb(38, 50, 56); transform-origin: 211.567px 346.169px;" id="elv2cip3gf0eh" class="animable"></path><path d="M191.84,393.07a160.78,160.78,0,0,0,20.74-3.19l5.13-1.13,5.1-1.21c1.7-.41,3.39-.87,5.09-1.3s3.38-.88,5.06-1.36c6.75-1.83,13.43-3.91,20.1-6.05L263,375.5,272.9,372l.06,0h0c3.77-.89,7.54-1.86,11.3-2.82s7.5-2,11.21-3.09a60.72,60.72,0,0,0,10.8-4.12,70,70,0,0,0,9.86-6.15,60.4,60.4,0,0,1-9.52,6.78,47.7,47.7,0,0,1-5.25,2.64c-1.82.76-3.66,1.42-5.5,2.05-3.7,1.26-7.44,2.37-11.18,3.45s-7.5,2.08-11.27,3.06l.1,0-9.9,3.63c-3.32,1.12-6.64,2.3-10,3.37-6.7,2.11-13.43,4.18-20.25,5.87s-13.68,3.28-20.62,4.43q-2.6.44-5.21.81c-1.75.21-3.49.46-5.24.63A85.91,85.91,0,0,1,191.84,393.07Z" style="fill: rgb(38, 50, 56); transform-origin: 253.985px 374.447px;" id="elhyd1dudx54" class="animable"></path><path d="M175.44,330.43,221.53,332s6.61-33.45,6.27-51.45c-.18-10.08-6.06-9.65-12.62-3.32C192.21,299.38,175.44,330.43,175.44,330.43Z" style="fill: rgb(80, 200, 120); transform-origin: 201.626px 302.344px;" id="eleumn8o9iby" class="animable"></path><path d="M209.2,292.28a.85.85,0,1,1-.85-.85A.85.85,0,0,1,209.2,292.28Zm13.32-.85a.85.85,0,1,0,.85.85A.85.85,0,0,0,222.52,291.43Zm-7.09-11a.85.85,0,1,0,.85.85A.85.85,0,0,0,215.43,280.47Zm-21.25,33.06a.85.85,0,1,0,.85.85A.85.85,0,0,0,194.18,313.53Zm14.17,0a.85.85,0,1,0,.85.85A.85.85,0,0,0,208.35,313.53Zm14.17,0a.85.85,0,1,0,.85.85A.85.85,0,0,0,222.52,313.53Zm-21.26-11a.85.85,0,1,0,.85.85A.86.86,0,0,0,201.26,302.57Zm14.17,0a.85.85,0,1,0,.85.85A.86.86,0,0,0,215.43,302.57Zm-28.33,22.1a.86.86,0,1,0,.85.86A.87.87,0,0,0,187.1,324.67Zm14.16,0a.86.86,0,1,0,.85.86A.86.86,0,0,0,201.26,324.67Zm14.17,0a.86.86,0,1,0,.85.86A.86.86,0,0,0,215.43,324.67Z" style="fill: rgb(255, 255, 255); transform-origin: 204.8px 303.37px;" id="el35782hdcsqb" class="animable"></path><path d="M220.17,324.7c-7.07-.83-26.31-2.53-39-2-.08,0-.1.3,0,.3,10.59,1.15,31.84,1.92,39,2.13C220.27,325.14,220.3,324.72,220.17,324.7Z" style="fill: rgb(38, 50, 56); transform-origin: 200.679px 323.865px;" id="elp0lczf5mywf" class="animable"></path><path d="M227.77,297.74c-.53,2-1,4-1.51,6l.09-.73c.28-2.8.56-5.6.76-8.41,0-.07-.11-.08-.12,0-1.37,9.79-5.24,34.54-5.46,37.25-.22,0-2.32.06-2.81,0-.11,0-.1.15,0,.16.25,0,3.41.41,3.43.34,1.37-4.77,3.46-22.81,3.9-26.8q1.08-3.87,1.77-7.81A0,0,0,1,0,227.77,297.74Z" style="fill: rgb(38, 50, 56); transform-origin: 223.231px 313.451px;" id="elm6dnuxqr3ye" class="animable"></path></g><defs>     <filter id="active" height="200%">         <feMorphology in="SourceAlpha" result="DILATED" operator="dilate" radius="2"></feMorphology>                <feFlood flood-color="#32DFEC" flood-opacity="1" result="PINK"></feFlood>        <feComposite in="PINK" in2="DILATED" operator="in" result="OUTLINE"></feComposite>        <feMerge>            <feMergeNode in="OUTLINE"></feMergeNode>            <feMergeNode in="SourceGraphic"></feMergeNode>        </feMerge>    </filter>    <filter id="hover" height="200%">        <feMorphology in="SourceAlpha" result="DILATED" operator="dilate" radius="2"></feMorphology>                <feFlood flood-color="#ff0000" flood-opacity="0.5" result="PINK"></feFlood>        <feComposite in="PINK" in2="DILATED" operator="in" result="OUTLINE"></feComposite>        <feMerge>            <feMergeNode in="OUTLINE"></feMergeNode>            <feMergeNode in="SourceGraphic"></feMergeNode>        </feMerge>            <feColorMatrix type="matrix" values="0   0   0   0   0                0   1   0   0   0                0   0   0   0   0                0   0   0   1   0 "></feColorMatrix>    </filter></defs></svg>